<svg width="22" height="15" viewBox="0 0 22 15" fill="none" xmlns="http://www.w3.org/2000/svg">
<path d="M11 2.49274C14.79 2.49274 18.17 4.54201 19.82 7.78428C18.17 11.0266 14.8 13.0758 11 13.0758C7.2 13.0758 3.83 11.0266 2.18 7.78428C3.83 4.54201 7.21 2.49274 11 2.49274ZM11 0.568542C6 0.568542 1.73 3.56067 0 7.78428C1.73 12.0079 6 15 11 15C16 15 20.27 12.0079 22 7.78428C20.27 3.56067 16 0.568542 11 0.568542ZM11 5.37903C12.38 5.37903 13.5 6.45658 13.5 7.78428C13.5 9.11197 12.38 10.1895 11 10.1895C9.62 10.1895 8.5 9.11197 8.5 7.78428C8.5 6.45658 9.62 5.37903 11 5.37903ZM11 3.45484C8.52 3.45484 6.5 5.39828 6.5 7.78428C6.5 10.1703 8.52 12.1137 11 12.1137C13.48 12.1137 15.5 10.1703 15.5 7.78428C15.5 5.39828 13.48 3.45484 11 3.45484Z" fill="#574B9B" fill-opacity="0.54"/>
<line x1="1" y1="-1" x2="20.1834" y2="-1" transform="matrix(-0.759548 0.650451 -0.680112 -0.733109 18.0897 0)" stroke="#574B9B" stroke-opacity="0.54" stroke-width="2" stroke-linecap="round"/>
</svg>
