<svg width="355" height="314" viewBox="0 0 355 314" fill="none" xmlns="http://www.w3.org/2000/svg">
<g clip-path="url(#clip0_5_20081)">
<path d="M215 0H0V314H215V0Z" fill="url(#paint0_linear_5_20081)" fill-opacity="0.08"/>
<path d="M36.9498 62.8968C38.0504 62.8968 38.9426 62.0046 38.9426 60.904C38.9426 59.8034 38.0504 58.9112 36.9498 58.9112C35.8492 58.9112 34.957 59.8034 34.957 60.904C34.957 62.0046 35.8492 62.8968 36.9498 62.8968Z" fill="#67517A"/>
<path d="M144.563 72.3628C145.664 72.3628 146.556 71.4705 146.556 70.37C146.556 69.2694 145.664 68.3772 144.563 68.3772C143.463 68.3772 142.57 69.2694 142.57 70.37C142.57 71.4705 143.463 72.3628 144.563 72.3628Z" fill="#A54243"/>
<path d="M73.817 125.171C74.9176 125.171 75.8098 124.279 75.8098 123.178C75.8098 122.077 74.9176 121.185 73.817 121.185C72.7164 121.185 71.8242 122.077 71.8242 123.178C71.8242 124.279 72.7164 125.171 73.817 125.171Z" fill="#67517A"/>
<path d="M245.196 185.951C246.297 185.951 247.189 185.059 247.189 183.958C247.189 182.857 246.297 181.965 245.196 181.965C244.095 181.965 243.203 182.857 243.203 183.958C243.203 185.059 244.095 185.951 245.196 185.951Z" fill="#67517A"/>
<path d="M260.145 107.806C261.246 107.806 262.138 106.914 262.138 105.813C262.138 104.712 261.246 103.82 260.145 103.82C259.045 103.82 258.152 104.712 258.152 105.813C258.152 106.914 259.045 107.806 260.145 107.806Z" fill="#FFB400"/>
<path d="M56.3795 185.951C57.4801 185.951 58.3723 185.059 58.3723 183.958C58.3723 182.857 57.4801 181.965 56.3795 181.965C55.2789 181.965 54.3867 182.857 54.3867 183.958C54.3867 185.059 55.2789 185.951 56.3795 185.951Z" fill="#A54243"/>
<path d="M311.954 179.973C313.054 179.973 313.947 179.081 313.947 177.98C313.947 176.879 313.054 175.987 311.954 175.987C310.853 175.987 309.961 176.879 309.961 177.98C309.961 179.081 310.853 179.973 311.954 179.973Z" fill="#FFB400"/>
<path d="M242.204 272.139C243.304 272.139 244.197 271.247 244.197 270.146C244.197 269.045 243.304 268.153 242.204 268.153C241.103 268.153 240.211 269.045 240.211 270.146C240.211 271.247 241.103 272.139 242.204 272.139Z" fill="#67517A"/>
<g opacity="0.5">
<path d="M350.512 278.369C339.369 304.844 308.872 320.353 268.341 323.88C227.836 327.404 177.454 318.94 126.809 297.625C76.1642 276.31 34.8918 246.2 9.09749 214.772C-16.7133 183.324 -26.9428 150.675 -15.8002 124.199C-4.65751 97.724 25.8402 82.215 66.3708 78.688C106.875 75.164 157.258 83.628 207.903 104.943C258.548 126.258 299.82 156.368 325.614 187.796C351.425 219.244 361.655 251.893 350.512 278.369Z" stroke="#422659" stroke-opacity="0.04"/>
<path d="M311.206 261.825C302.471 282.577 278.554 294.757 246.716 297.527C214.903 300.296 175.324 293.648 135.534 276.902C95.744 260.155 63.3231 236.5 43.064 211.817C22.7886 187.113 14.7784 161.496 23.5125 140.744C32.2466 119.991 56.164 107.812 88.002 105.041C119.815 102.273 159.394 108.92 199.184 125.667C238.974 142.413 271.395 166.068 291.654 190.752C311.929 215.455 319.94 241.072 311.206 261.825Z" stroke="#422659" stroke-opacity="0.08"/>
<path d="M265.968 243.032C260 257.213 243.639 265.569 221.782 267.471C199.951 269.371 172.778 264.809 145.454 253.309C118.129 241.809 95.872 225.567 81.97 208.628C68.0504 191.669 62.5889 174.128 68.5572 159.948C74.5255 145.767 90.886 137.41 112.744 135.508C134.575 133.609 161.747 138.17 189.072 149.67C216.396 161.17 238.653 177.412 252.556 194.351C266.475 211.31 271.937 228.851 265.968 243.032Z" stroke="#422659" stroke-opacity="0.12"/>
<path d="M209.375 219.211C206.874 225.153 199.988 228.715 190.646 229.528C181.329 230.339 169.712 228.393 158.017 223.47C146.321 218.548 136.808 211.602 130.875 204.373C124.926 197.124 122.66 189.709 125.16 183.768C127.661 177.827 134.547 174.264 143.889 173.451C153.206 172.64 164.823 174.587 176.519 179.509C188.214 184.431 197.727 191.378 203.66 198.606C209.609 205.855 211.875 213.27 209.375 219.211Z" stroke="#422659" stroke-opacity="0.3"/>
</g>
</g>
<defs>
<linearGradient id="paint0_linear_5_20081" x1="107.5" y1="0" x2="107.5" y2="314" gradientUnits="userSpaceOnUse">
<stop stop-color="#ED5F60"/>
<stop offset="1" stop-color="#ED5F60" stop-opacity="0.3"/>
</linearGradient>
<clipPath id="clip0_5_20081">
<rect width="355" height="314" fill="white"/>
</clipPath>
</defs>
</svg>
