<svg width="22" height="22" viewBox="0 0 22 22" fill="none" xmlns="http://www.w3.org/2000/svg">
<path opacity="0.9" d="M18.9012 5.43708C18.7632 5.24973 18.5252 5.16465 18.3 5.22266C17.7243 5.3709 16.6174 5.78426 15.801 6.87524C15.2102 7.66543 13.9602 7.11157 14.1462 6.14262C14.2305 5.70305 14.3959 5.21407 14.6748 4.67696C15.9677 2.18735 13.9873 0.284693 13.8459 0.153639C13.8403 0.148482 13.8347 0.144186 13.8283 0.139459C13.7621 0.0943418 13.3629 -0.154447 12.9904 0.146334C12.9083 0.212506 10.9335 1.7654 8.93371 4.15661C6.77281 6.74075 4.82031 10.0248 4.82031 13.4061C4.82031 18.1447 8.67547 21.9994 13.4136 21.9994C18.1518 21.9994 22.007 18.1442 22.007 13.4061C22.007 10.5568 20.6199 7.77801 18.8999 5.43708H18.9012Z" fill="#422659"/>
<path opacity="0.9" d="M6.0352 4.14062H2.20195C1.6158 4.14062 1.14062 4.6158 1.14062 5.20195C1.14062 5.78811 1.6158 6.26328 2.20195 6.26328H6.0352C6.62135 6.26328 7.09652 5.78811 7.09652 5.20195C7.09652 4.6158 6.62135 4.14062 6.0352 4.14062Z" fill="#422659"/>
<path opacity="0.9" d="M3.75941 8.38281H1.06914C0.482985 8.38281 0.0078125 8.85799 0.0078125 9.44414C0.0078125 10.0303 0.482985 10.5055 1.06914 10.5055H3.75941C4.34557 10.5055 4.82074 10.0303 4.82074 9.44414C4.82074 8.85799 4.34557 8.38281 3.75941 8.38281Z" fill="#422659"/>
<path opacity="0.9" d="M3.22242 12.6289H2.84258C2.25642 12.6289 1.78125 13.1041 1.78125 13.6902C1.78125 14.2764 2.25642 14.7516 2.84258 14.7516H3.22242C3.80858 14.7516 4.28375 14.2764 4.28375 13.6902C4.28375 13.1041 3.80858 12.6289 3.22242 12.6289Z" fill="#422659"/>
<path opacity="0.9" d="M4.37797 16.8594H1.4793C0.893142 16.8594 0.417969 17.3345 0.417969 17.9207C0.417969 18.5069 0.893142 18.982 1.4793 18.982H4.37797C4.96412 18.982 5.4393 18.5069 5.4393 17.9207C5.4393 17.3345 4.96412 16.8594 4.37797 16.8594Z" fill="#422659"/>
<path opacity="0.9" d="M19.4679 6.24489C19.284 5.97032 19.095 5.7009 18.9012 5.43708C18.7632 5.24973 18.5252 5.16465 18.3 5.22266C17.7243 5.3709 16.6174 5.78426 15.801 6.87524C15.2102 7.66544 13.9602 7.11157 14.1462 6.14262C14.2305 5.70305 14.3959 5.21407 14.6748 4.67696C15.9677 2.18735 13.9873 0.284693 13.8459 0.153639C13.8403 0.148482 13.8347 0.144186 13.8283 0.139459C13.7621 0.0943418 13.3629 -0.154447 12.9904 0.146334C12.9083 0.212506 10.9335 1.7654 8.93371 4.15661C6.77281 6.74075 4.82031 10.0248 4.82031 13.4061C4.82031 14.6917 5.10477 15.912 5.61309 17.0086C6.26492 17.1194 6.9348 17.1774 7.61801 17.1774C13.8618 17.1774 18.9807 12.3636 19.4671 6.24489H19.4679Z" fill="#422659"/>
<path opacity="0.9" d="M13.4259 18.9963C10.7248 18.9963 8.53516 16.8066 8.53516 14.1055C8.53516 11.4045 10.7248 9.21484 13.4259 9.21484C16.1269 9.21484 18.3166 11.4045 18.3166 14.1055C18.3166 16.8066 16.1269 18.9963 13.4259 18.9963Z" fill="white"/>
<path opacity="0.9" d="M15.3637 13.6585H13.9105V11.1135C13.9105 10.7921 13.6502 10.5312 13.3283 10.5312C13.0065 10.5312 12.7461 10.7916 12.7461 11.1135V14.2407C12.7461 14.5621 13.0065 14.823 13.3283 14.823H15.3637C15.6852 14.823 15.946 14.5626 15.946 14.2407C15.946 13.9189 15.6856 13.6585 15.3637 13.6585Z" fill="#422659"/>
</svg>
