<svg width="18" height="21" viewBox="0 0 18 21" fill="none" xmlns="http://www.w3.org/2000/svg">
<path d="M17.1007 10.1157C16.8078 9.82281 16.3329 9.82281 16.04 10.1157L8.43863 17.7171C6.87593 19.2798 4.34448 19.2798 2.78178 17.7171C1.21907 16.1544 1.21907 13.623 2.78178 12.0602L11.6206 3.22141C12.5964 2.2456 14.1803 2.2456 15.1561 3.22141C16.132 4.19722 16.132 5.78114 15.1561 6.75694L7.73153 14.1816C7.34262 14.5705 6.70622 14.5705 6.31731 14.1816C5.9284 13.7927 5.9284 13.1563 6.31731 12.7674L12.5045 6.58017C12.7974 6.28727 12.7974 5.8124 12.5045 5.51951C12.2116 5.22661 11.7367 5.22661 11.4438 5.51951L5.25665 11.7067C4.28084 12.6825 4.28084 14.2664 5.25665 15.2422C6.23246 16.218 7.81638 16.218 8.79219 15.2422L16.2168 7.8176C17.7795 6.2549 17.7795 3.72346 16.2168 2.16075C14.6541 0.598044 12.1227 0.598045 10.56 2.16075L1.72112 10.9996C-0.428486 13.1492 -0.428486 16.6282 1.72112 18.7778C3.87072 20.9274 7.34969 20.9274 9.49929 18.7778L17.1007 11.1764C17.3936 10.8835 17.3936 10.4086 17.1007 10.1157Z" fill="#574B9B" fill-opacity="0.54"/>
</svg>
