<svg width="18" height="18" viewBox="0 0 18 18" fill="none" xmlns="http://www.w3.org/2000/svg">
<path d="M5.66669 13.9998C4.75002 13.9998 4.00835 14.7498 4.00835 15.6665C4.00835 16.5832 4.75002 17.3332 5.66669 17.3332C6.58335 17.3332 7.33335 16.5832 7.33335 15.6665C7.33335 14.7498 6.58335 13.9998 5.66669 13.9998ZM1.50002 0.666504C1.03978 0.666504 0.666687 1.0396 0.666687 1.49984C0.666687 1.96007 1.03978 2.33317 1.50002 2.33317H1.70088C2.08714 2.33317 2.43887 2.55563 2.6044 2.90462L5.11391 8.19551C5.2517 8.48601 5.2414 8.82505 5.08623 9.10666L4.20835 10.6998C4.07502 10.9332 4.00002 11.2082 4.00002 11.4998C4.00002 12.4165 4.75002 13.1665 5.66669 13.1665H14.8334C15.2936 13.1665 15.6667 12.7934 15.6667 12.3332C15.6667 11.8729 15.2936 11.4998 14.8334 11.4998H6.01669C5.91717 11.4998 5.83584 11.4331 5.81408 11.3411C5.80644 11.3088 5.81243 11.2752 5.82049 11.243C5.82903 11.2088 5.84197 11.1759 5.85899 11.1451L6.29809 10.3498C6.47409 10.0311 6.80941 9.83317 7.17351 9.83317H12.7917C13.4167 9.83317 13.9667 9.4915 14.25 8.97484L17.2334 3.5665C17.3 3.44984 17.3334 3.30817 17.3334 3.1665C17.3334 2.70817 16.9584 2.33317 16.5 2.33317H4.80996C4.42243 2.33317 4.06978 2.10926 3.90494 1.75853L3.66177 1.24114C3.49692 0.890414 3.14428 0.666504 2.75674 0.666504H1.50002ZM14 13.9998C13.0834 13.9998 12.3417 14.7498 12.3417 15.6665C12.3417 16.5832 13.0834 17.3332 14 17.3332C14.9167 17.3332 15.6667 16.5832 15.6667 15.6665C15.6667 14.7498 14.9167 13.9998 14 13.9998Z" fill="white"/>
</svg>
