<svg width="20" height="22" viewBox="0 0 20 22" fill="none" xmlns="http://www.w3.org/2000/svg">
<path d="M14.5 1C14.5 0.447715 14.0523 0 13.5 0H2.5C1.4 0 0.5 0.9 0.5 2V15C0.5 15.5523 0.947715 16 1.5 16C2.05228 16 2.5 15.5523 2.5 15V3C2.5 2.44772 2.94772 2 3.5 2H13.5C14.0523 2 14.5 1.55228 14.5 1ZM17.5 4H6.5C5.4 4 4.5 4.9 4.5 6V20C4.5 21.1 5.4 22 6.5 22H17.5C18.6 22 19.5 21.1 19.5 20V6C19.5 4.9 18.6 4 17.5 4ZM17.5 19C17.5 19.5523 17.0523 20 16.5 20H7.5C6.94771 20 6.5 19.5523 6.5 19V7C6.5 6.44772 6.94772 6 7.5 6H16.5C17.0523 6 17.5 6.44772 17.5 7V19Z" fill="white"/>
</svg>
