<svg width="22" height="22" viewBox="0 0 22 22" fill="none" xmlns="http://www.w3.org/2000/svg">
<path opacity="0.9" d="M18.8934 5.43708C18.7554 5.24973 18.5174 5.16465 18.2922 5.22266C17.7164 5.3709 16.6096 5.78426 15.7932 6.87524C15.2023 7.66543 13.9524 7.11157 14.1384 6.14262C14.2227 5.70305 14.3881 5.21407 14.667 4.67696C15.9599 2.18735 13.9795 0.284693 13.8381 0.153639C13.8325 0.148482 13.8269 0.144186 13.8205 0.139459C13.7543 0.0943418 13.3551 -0.154447 12.9826 0.146334C12.9005 0.212506 10.9257 1.7654 8.9259 4.15661C6.765 6.74075 4.8125 10.0248 4.8125 13.4061C4.8125 18.1447 8.66766 21.9994 13.4058 21.9994C18.144 21.9994 21.9991 18.1442 21.9991 13.4061C21.9991 10.5568 20.6121 7.77801 18.8921 5.43708H18.8934Z" fill="white"/>
<path opacity="0.9" d="M6.02738 4.14062H2.19414C1.60799 4.14062 1.13281 4.6158 1.13281 5.20195C1.13281 5.78811 1.60799 6.26328 2.19414 6.26328H6.02738C6.61354 6.26328 7.08871 5.78811 7.08871 5.20195C7.08871 4.6158 6.61354 4.14062 6.02738 4.14062Z" fill="white"/>
<path opacity="0.9" d="M3.7516 8.38281H1.06133C0.475173 8.38281 0 8.85799 0 9.44414C0 10.0303 0.475173 10.5055 1.06133 10.5055H3.7516C4.33776 10.5055 4.81293 10.0303 4.81293 9.44414C4.81293 8.85799 4.33776 8.38281 3.7516 8.38281Z" fill="white"/>
<path opacity="0.9" d="M3.21461 12.6289H2.83477C2.24861 12.6289 1.77344 13.1041 1.77344 13.6902C1.77344 14.2764 2.24861 14.7516 2.83477 14.7516H3.21461C3.80076 14.7516 4.27594 14.2764 4.27594 13.6902C4.27594 13.1041 3.80076 12.6289 3.21461 12.6289Z" fill="white"/>
<path opacity="0.9" d="M4.37016 16.8594H1.47148C0.885329 16.8594 0.410156 17.3345 0.410156 17.9207C0.410156 18.5069 0.885329 18.982 1.47148 18.982H4.37016C4.95631 18.982 5.43148 18.5069 5.43148 17.9207C5.43148 17.3345 4.95631 16.8594 4.37016 16.8594Z" fill="white"/>
<path opacity="0.9" d="M19.4601 6.24489C19.2762 5.97032 19.0871 5.7009 18.8934 5.43708C18.7554 5.24973 18.5174 5.16465 18.2922 5.22266C17.7164 5.3709 16.6096 5.78426 15.7932 6.87524C15.2023 7.66544 13.9524 7.11157 14.1384 6.14262C14.2227 5.70305 14.3881 5.21407 14.667 4.67696C15.9599 2.18735 13.9795 0.284693 13.8381 0.153639C13.8325 0.148482 13.8269 0.144186 13.8205 0.139459C13.7543 0.0943418 13.3551 -0.154447 12.9826 0.146334C12.9005 0.212506 10.9257 1.7654 8.9259 4.15661C6.765 6.74075 4.8125 10.0249 4.8125 13.4061C4.8125 14.6917 5.09695 15.912 5.60527 17.0086C6.25711 17.1194 6.92699 17.1774 7.6102 17.1774C13.854 17.1774 18.9729 12.3636 19.4593 6.24489H19.4601Z" fill="white"/>
<path opacity="0.9" d="M13.418 18.9962C10.717 18.9962 8.52734 16.8066 8.52734 14.1055C8.52734 11.4045 10.717 9.21484 13.418 9.21484C16.1191 9.21484 18.3088 11.4045 18.3088 14.1055C18.3088 16.8066 16.1191 18.9962 13.418 18.9962Z" fill="#422659"/>
<path opacity="0.9" d="M15.3559 13.6585H13.9027V11.1135C13.9027 10.7921 13.6423 10.5312 13.3205 10.5312C12.9987 10.5312 12.7383 10.7916 12.7383 11.1135V14.2407C12.7383 14.5621 12.9987 14.823 13.3205 14.823H15.3559C15.6773 14.823 15.9382 14.5626 15.9382 14.2407C15.9382 13.9189 15.6778 13.6585 15.3559 13.6585V13.6585Z" fill="white"/>
</svg>
