<?xml version="1.0" encoding="UTF-8"?>
<svg xmlns="http://www.w3.org/2000/svg" xmlns:xlink="http://www.w3.org/1999/xlink" width="26px" height="26px" viewBox="0 0 26 25" version="1.1">
<g id="surface1">
<path style=" stroke:none;fill-rule:evenodd;fill:rgb(92.156863%,0.392157%,0%);fill-opacity:1;" d="M 16.144531 15.914062 C 15.273438 14.9375 14.355469 13.945312 13.394531 12.960938 C 10.246094 15.878906 7.328125 19.167969 5.21875 22.882812 C 2.628906 27.441406 -1.191406 23.710938 0.539062 20.40625 C 1.933594 17.394531 5.519531 13.210938 9.824219 9.582031 C 7.453125 7.53125 4.851562 5.679688 2.003906 4.316406 C -2.160156 2.320312 1.023438 -1.023438 4.035156 0.304688 C 6.574219 1.277344 10.078125 3.789062 13.285156 6.910156 C 16.488281 4.652344 19.859375 2.886719 22.898438 2.195312 C 23.558594 2.042969 25.484375 1.636719 25.929688 2.246094 C 26.097656 2.476562 25.914062 2.820312 25.570312 3.195312 C 24.402344 4.46875 21.265625 6.496094 19.746094 7.660156 C 18.652344 8.5 17.539062 9.382812 16.429688 10.300781 C 17.609375 11.71875 18.660156 13.1875 19.5 14.636719 C 20.230469 15.898438 20.796875 17.152344 21.144531 18.347656 C 21.304688 18.898438 21.742188 20.496094 21.214844 20.890625 C 21.015625 21.039062 20.703125 20.898438 20.355469 20.625 C 19.171875 19.695312 17.242188 17.144531 16.144531 15.914062 Z M 16.144531 15.914062 "/>
</g>
</svg>
