<svg width="1152" height="420" viewBox="0 0 1152 420" fill="none" xmlns="http://www.w3.org/2000/svg">
<g clip-path="url(#clip0_2286_97396)">
<circle opacity="0.02" cx="75.5" cy="78.5" r="35.5" fill="#FFB400"/>
<circle opacity="0.02" cx="75.5" cy="208.5" r="35.5" fill="#FFB400"/>
<circle opacity="0.03" cx="321.5" cy="313.5" r="69.5" fill="#FFB400"/>
<path opacity="0.05" d="M1050.5 26L1058.47 50.5299H1084.26L1063.4 65.6902L1071.37 90.2201L1050.5 75.0598L1029.63 90.2201L1037.6 65.6902L1016.74 50.5299H1042.53L1050.5 26Z" fill="#FFB400"/>
<path opacity="0.1" d="M568.779 389.528C571.728 387.949 575.272 387.949 578.221 389.528L589.156 395.384L599.694 401.926C602.536 403.69 604.308 406.759 604.415 410.102L604.811 422.5L604.415 434.898C604.308 438.241 602.536 441.31 599.694 443.074L589.156 449.616L578.221 455.472C575.272 457.051 571.728 457.051 568.779 455.472L557.844 449.616L547.306 443.074C544.464 441.31 542.692 438.241 542.585 434.898L542.189 422.5L542.585 410.102C542.692 406.759 544.464 403.69 547.306 401.926L557.844 395.384L568.779 389.528Z" fill="#FFB400"/>
</g>
<defs>
<clipPath id="clip0_2286_97396">
<rect width="1152" height="420" rx="20" fill="white"/>
</clipPath>
</defs>
</svg>
