<svg width="12" height="12" viewBox="0 0 12 12" fill="none" xmlns="http://www.w3.org/2000/svg">
<path d="M5.48798 10.5448C5.80287 10.3465 6.19713 10.3465 6.51202 10.5448L8.58224 11.8482C9.33264 12.3206 10.2584 11.6188 10.0592 10.7284L9.50982 8.27177C9.42626 7.89812 9.54799 7.50693 9.82599 7.25571L11.6565 5.60149C12.319 5.00281 11.9649 3.86763 11.0915 3.79033L8.68367 3.57724C8.31746 3.54483 7.99853 3.30365 7.85511 2.95067L6.91232 0.630272C6.57088 -0.210091 5.42912 -0.21009 5.08768 0.630273L4.14489 2.95067C4.00147 3.30365 3.68254 3.54483 3.31634 3.57724L0.908494 3.79033C0.0351064 3.86763 -0.319044 5.00281 0.343457 5.60149L2.17401 7.25571C2.45201 7.50693 2.57374 7.89812 2.49018 8.27177L1.94077 10.7284C1.74165 11.6188 2.66736 12.3206 3.41777 11.8482L5.48798 10.5448Z" fill="#495F6A"/>
</svg>
