<svg width="40" height="40" viewBox="0 0 40 40" fill="none" xmlns="http://www.w3.org/2000/svg">
<path d="M29.6875 38.125H1.875V33.125H27.5C28.9918 33.125 30.4226 32.5324 31.4775 31.4775C32.5324 30.4226 33.125 28.9918 33.125 27.5V16.25C33.125 14.7582 32.5324 13.3274 31.4775 12.2725C30.4226 11.2176 28.9918 10.625 27.5 10.625H10V14.375L1.875 8.125L10 1.875V5.625H29.6875C31.9253 5.625 34.0714 6.51395 35.6537 8.09629C37.236 9.67863 38.125 11.8247 38.125 14.0625V29.6875C38.125 31.9253 37.236 34.0714 35.6537 35.6537C34.0714 37.236 31.9253 38.125 29.6875 38.125Z" fill="#4CAF50"/>
<path d="M1.875 18.125H18.125V34.375H1.875V18.125Z" fill="#2E7D32"/>
<path d="M18.125 18.125H28.125V34.375H18.125V18.125Z" fill="#4CAF50"/>
<path d="M8.125 18.125H11.875V21.875H8.125V18.125Z" fill="white"/>
<path d="M5.625 24.375H14.375V31.875H5.625V24.375Z" fill="white"/>
<path d="M7.5 26.25H10V27.5H7.5V26.25Z" fill="#4CAF50"/>
<path d="M10 28.75H12.5V30H10V28.75Z" fill="#4CAF50"/>
<path d="M25 31.25H26.25V32.5H25V31.25Z" fill="white"/>
<path d="M22.5 31.25H23.75V32.5H22.5V31.25Z" fill="white"/>
<path d="M20 31.25H21.25V32.5H20V31.25Z" fill="white"/>
</svg>
