<svg width="40" height="40" viewBox="0 0 40 40" fill="none" xmlns="http://www.w3.org/2000/svg">
<path d="M17.5 12.5V10H2.5C1.1225 10 0 11.1225 0 12.5V17.5H18.0275C17.68 15.9725 17.5 14.3275 17.5 12.5Z" fill="#007DFF"/>
<path d="M39.8975 22.5C38.1925 25.1275 35.5925 27.3625 31.8675 29.5025C31.295 29.83 30.65 30 30 30C29.35 30 28.705 29.83 28.14 29.5075C24.415 27.3625 21.815 25.125 20.1075 22.5H0V35C0 36.38 1.1225 37.5 2.5 37.5H37.5C38.88 37.5 40 36.38 40 35V22.5H39.8975ZM11.25 30H6.25C5.56 30 5 29.44 5 28.75C5 28.06 5.56 27.5 6.25 27.5H11.25C11.94 27.5 12.5 28.06 12.5 28.75C12.5 29.44 11.94 30 11.25 30Z" fill="#007DFF"/>
<path d="M39.2425 6.35125L30.4925 2.60125C30.175 2.46625 29.8225 2.46625 29.505 2.60125L20.755 6.35125C20.2975 6.54625 20 6.99875 20 7.49875V12.4987C20 19.3762 22.5425 23.3962 29.3775 27.3338C29.57 27.4438 29.785 27.4988 30 27.4988C30.215 27.4988 30.43 27.4438 30.6225 27.3338C37.4575 23.4062 40 19.3862 40 12.4987V7.49875C40 6.99875 39.7025 6.54625 39.2425 6.35125ZM34.7275 12.0312L29.7275 18.2812C29.4875 18.5763 29.1275 18.7488 28.75 18.7488C28.7325 18.7488 28.7125 18.7488 28.6975 18.7488C28.3 18.7313 27.9325 18.5263 27.71 18.1938L25.21 14.4438C24.8275 13.8688 24.9825 13.0938 25.5575 12.7113C26.1275 12.3313 26.905 12.4813 27.29 13.0588L28.8425 15.3862L32.7725 10.4712C33.205 9.93375 33.9925 9.84875 34.53 10.2763C35.07 10.7038 35.155 11.4912 34.7275 12.0312Z" fill="#007DFF"/>
</svg>
