<svg width="40" height="40" viewBox="0 0 40 40" fill="none" xmlns="http://www.w3.org/2000/svg">
<g clip-path="url(#clip0_1656_12634)">
<path fill-rule="evenodd" clip-rule="evenodd" d="M27.2127 35.918V21.1415L40 13.7587V27.9695C40 28.3284 39.8208 28.6387 39.51 28.8182L27.2127 35.918ZM11.8306 28.5739H1.51328C0.677578 28.5739 0 27.8963 0 27.0606C0 26.2249 0.677578 25.5473 1.51328 25.5473H11.7768C13.5515 25.5473 13.5515 22.7131 11.7768 22.7131H5.60914C4.77344 22.7131 4.09578 22.0355 4.09578 21.1998C4.09578 20.3641 4.77344 19.6866 5.60914 19.6866H10.433C12.2077 19.6866 12.2077 16.8523 10.433 16.8523H1.51336C0.677656 16.8523 7.8125e-05 16.1748 7.8125e-05 15.3391C7.8125e-05 14.5034 0.677656 13.8258 1.51336 13.8258H11.8796L24.5511 21.1417V35.918L11.8306 28.5739ZM13.0851 11.4561L25.8819 18.8443L38.6787 11.456L25.9064 4.08203H17.5264C16.6907 4.08203 16.0131 4.75961 16.0131 5.59531C16.0131 6.43102 16.6907 7.10859 17.5264 7.10859H19.2973C19.46 7.10859 19.5963 7.2132 19.6384 7.37031C19.6805 7.52742 19.6148 7.68617 19.4739 7.76758L13.0851 11.4561ZM12.3566 4.08203C13.1923 4.08203 13.8699 4.75961 13.8699 5.59531C13.8699 6.43102 13.1923 7.10859 12.3566 7.10859H3.15844C2.32273 7.10859 1.64508 6.43102 1.64508 5.59531C1.64508 4.75961 2.32266 4.08203 3.15844 4.08203H12.3566Z" fill="#FFB400"/>
</g>
<defs>
<clipPath id="clip0_1656_12634">
<rect width="40" height="40" fill="white"/>
</clipPath>
</defs>
</svg>
