<svg width="21" height="20" viewBox="0 0 21 20" fill="none" xmlns="http://www.w3.org/2000/svg">
<mask id="path-1-inside-1_1_23495" fill="white">
<path d="M2.01205 5.7333C1.76533 5.60927 1.66476 5.308 1.80096 5.06778C2.49757 3.83916 3.44758 2.77029 4.58993 1.93333C5.86693 0.99774 7.3478 0.378686 8.91073 0.127097C10.4737 -0.124493 12.074 -0.00142994 13.5801 0.486162C14.9274 0.922347 16.1648 1.6391 17.2118 2.58705C17.4165 2.7724 17.4156 3.09001 17.2202 3.28519L15.0999 5.40385C14.9045 5.59903 14.5892 5.5971 14.3784 5.41868C13.7831 4.91469 13.094 4.53049 12.3488 4.28926C11.4448 3.99658 10.4842 3.92271 9.54603 4.07373C8.60787 4.22475 7.71897 4.59634 6.95245 5.15794C6.32067 5.62081 5.7869 6.20186 5.37981 6.86721C5.23569 7.10276 4.9369 7.20355 4.69017 7.07953L2.01205 5.7333Z"/>
</mask>
<path d="M2.01205 5.7333C1.76533 5.60927 1.66476 5.308 1.80096 5.06778C2.49757 3.83916 3.44758 2.77029 4.58993 1.93333C5.86693 0.99774 7.3478 0.378686 8.91073 0.127097C10.4737 -0.124493 12.074 -0.00142994 13.5801 0.486162C14.9274 0.922347 16.1648 1.6391 17.2118 2.58705C17.4165 2.7724 17.4156 3.09001 17.2202 3.28519L15.0999 5.40385C14.9045 5.59903 14.5892 5.5971 14.3784 5.41868C13.7831 4.91469 13.094 4.53049 12.3488 4.28926C11.4448 3.99658 10.4842 3.92271 9.54603 4.07373C8.60787 4.22475 7.71897 4.59634 6.95245 5.15794C6.32067 5.62081 5.7869 6.20186 5.37981 6.86721C5.23569 7.10276 4.9369 7.20355 4.69017 7.07953L2.01205 5.7333Z" stroke="#FF4B26" stroke-width="6" mask="url(#path-1-inside-1_1_23495)"/>
<path d="M11.5 8.5C11.5 8.22386 11.7239 8 12 8H20C20.2761 8 20.5 8.22386 20.5 8.5V10C20.5 11.1046 19.6046 12 18.5 12H12C11.7239 12 11.5 11.7761 11.5 11.5V8.5Z" fill="#167EE6"/>
<mask id="path-3-inside-2_1_23495" fill="white">
<path d="M16.2015 18.2154C15.0789 18.9945 13.8086 19.5352 12.4689 19.8043C11.1291 20.0733 9.74851 20.0649 8.41217 19.7796C7.07583 19.4943 5.81213 18.9382 4.69908 18.1455C3.58603 17.3528 2.64725 16.3405 1.94067 15.1709L5.36221 13.1038C5.78634 13.8059 6.34985 14.4136 7.01797 14.8894C7.68608 15.3652 8.44462 15.699 9.24677 15.8703C10.0489 16.0415 10.8776 16.0466 11.6818 15.8851C12.486 15.7236 13.2485 15.399 13.9224 14.9313L16.2015 18.2154Z"/>
</mask>
<path d="M16.2015 18.2154C15.0789 18.9945 13.8086 19.5352 12.4689 19.8043C11.1291 20.0733 9.74851 20.0649 8.41217 19.7796C7.07583 19.4943 5.81213 18.9382 4.69908 18.1455C3.58603 17.3528 2.64725 16.3405 1.94067 15.1709L5.36221 13.1038C5.78634 13.8059 6.34985 14.4136 7.01797 14.8894C7.68608 15.3652 8.44462 15.699 9.24677 15.8703C10.0489 16.0415 10.8776 16.0466 11.6818 15.8851C12.486 15.7236 13.2485 15.399 13.9224 14.9313L16.2015 18.2154Z" stroke="#12B347" stroke-width="6" mask="url(#path-3-inside-2_1_23495)"/>
<mask id="path-4-inside-3_1_23495" fill="white">
<path d="M2.05235 15.3514C1.07157 13.8031 0.535143 12.0151 0.501668 10.1826C0.468194 8.35019 0.938959 6.54377 1.86254 4.96073L5.31531 6.97515C4.76093 7.92538 4.47835 9.00969 4.49844 10.1096C4.51854 11.2096 4.84053 12.2828 5.42925 13.2122L2.05235 15.3514Z"/>
</mask>
<path d="M2.05235 15.3514C1.07157 13.8031 0.535143 12.0151 0.501668 10.1826C0.468194 8.35019 0.938959 6.54377 1.86254 4.96073L5.31531 6.97515C4.76093 7.92538 4.47835 9.00969 4.49844 10.1096C4.51854 11.2096 4.84053 12.2828 5.42925 13.2122L2.05235 15.3514Z" stroke="#FFD500" stroke-width="6" mask="url(#path-4-inside-3_1_23495)"/>
<mask id="path-5-inside-4_1_23495" fill="white">
<path d="M20.5 10C20.5 11.6142 20.1092 13.2044 19.3611 14.6348C18.613 16.0651 17.5297 17.2931 16.2038 18.2138L13.9237 14.9304C14.7196 14.3777 15.3699 13.6406 15.8189 12.782C16.268 11.9235 16.5026 10.9689 16.5026 10H20.5Z"/>
</mask>
<path d="M20.5 10C20.5 11.6142 20.1092 13.2044 19.3611 14.6348C18.613 16.0651 17.5297 17.2931 16.2038 18.2138L13.9237 14.9304C14.7196 14.3777 15.3699 13.6406 15.8189 12.782C16.268 11.9235 16.5026 10.9689 16.5026 10H20.5Z" stroke="#167EE6" stroke-width="6" mask="url(#path-5-inside-4_1_23495)"/>
</svg>
