<?xml version="1.0" encoding="UTF-8"?>
<svg xmlns="http://www.w3.org/2000/svg" xmlns:xlink="http://www.w3.org/1999/xlink" width="26px" height="26px" viewBox="0 0 26 26" version="1.1">
<g id="surface1">
<path style=" stroke:none;fill-rule:nonzero;fill:rgb(18.039216%,49.019608%,19.607843%);fill-opacity:1;" d="M 13 0 C 15.015625 0 16.925781 0.460938 18.628906 1.277344 C 17.933594 1.832031 17.285156 2.359375 16.683594 2.871094 C 15.535156 2.453125 14.292969 2.226562 13.003906 2.226562 C 10.027344 2.226562 7.332031 3.433594 5.382812 5.382812 C 3.433594 7.332031 2.226562 10.023438 2.226562 13 C 2.226562 15.976562 3.433594 18.667969 5.382812 20.617188 C 7.335938 22.566406 10.027344 23.773438 13.003906 23.773438 C 15.976562 23.773438 18.671875 22.566406 20.621094 20.617188 C 22.570312 18.667969 23.777344 15.976562 23.777344 13 C 23.777344 12.292969 23.707031 11.601562 23.578125 10.929688 C 24.136719 10.203125 24.707031 9.476562 25.292969 8.753906 C 25.753906 10.085938 26.003906 11.511719 26.003906 13 C 26.003906 16.589844 24.546875 19.839844 22.195312 22.191406 C 19.84375 24.542969 16.589844 26 13.003906 26 C 9.414062 26 6.160156 24.542969 3.808594 22.191406 C 1.457031 19.839844 0 16.589844 0 13 C 0 9.410156 1.457031 6.160156 3.808594 3.808594 C 6.160156 1.457031 9.410156 0 13 0 Z M 6.945312 10.863281 L 10.117188 10.824219 L 10.351562 10.882812 C 10.992188 11.253906 11.59375 11.675781 12.160156 12.152344 C 12.566406 12.496094 12.953125 12.871094 13.324219 13.277344 C 14.460938 11.449219 15.671875 9.765625 16.953125 8.21875 C 18.355469 6.527344 19.84375 4.988281 21.410156 3.585938 L 21.71875 3.46875 L 25.179688 3.46875 L 24.480469 4.242188 C 22.335938 6.625 20.390625 9.089844 18.632812 11.628906 C 16.875 14.171875 15.300781 16.792969 13.902344 19.496094 L 13.46875 20.335938 L 13.070312 19.480469 C 12.332031 17.898438 11.449219 16.441406 10.394531 15.144531 C 9.339844 13.847656 8.113281 12.691406 6.683594 11.710938 Z M 6.945312 10.863281 "/>
</g>
</svg>
