<svg width="12" height="12" viewBox="0 0 12 12" fill="none" xmlns="http://www.w3.org/2000/svg">
<path d="M0.339316 5.3647C-0.315179 4.79128 0.0345702 3.70548 0.897981 3.63032L3.29056 3.42205C3.65236 3.39055 3.96732 3.15985 4.10921 2.82241L5.04223 0.603468C5.21979 0.181191 5.61533 -0.0193896 6 0.00166338C6 0.00166338 5.98161 0.000481927 5.99995 0L6 9.9627C5.80666 9.95192 5.61087 9.9989 5.43897 10.1036L3.38588 11.3546C2.64357 11.8068 1.72763 11.1358 1.92347 10.2831L2.46514 7.9248C2.5472 7.56752 2.42692 7.1937 2.15253 6.95331L0.339316 5.3647Z" fill="#FFB400"/>
<path d="M11.6607 5.3647C12.3152 4.79128 11.9654 3.70548 11.102 3.63032L8.70944 3.42205C8.34764 3.39055 8.03268 3.15985 7.89079 2.82241L6.95777 0.603468C6.78021 0.181191 6.38467 -0.0193896 6 0.00166338C6 0.00166338 6.01839 0.000481927 6.00005 0L6 9.9627C6.19334 9.95192 6.38913 9.9989 6.56103 10.1036L8.61412 11.3546C9.35643 11.8068 10.2724 11.1358 10.0765 10.2831L9.53486 7.9248C9.4528 7.56752 9.57308 7.1937 9.84747 6.95331L11.6607 5.3647Z" fill="#574B9B" fill-opacity="0.23"/>
</svg>
