<svg width="21" height="20" viewBox="0 0 21 20" fill="none" xmlns="http://www.w3.org/2000/svg">
<path opacity="0.9" d="M10.002 20C15.5248 20 20.002 15.5228 20.002 10C20.002 4.47715 15.5248 0 10.002 0C4.47911 0 0.00195312 4.47715 0.00195312 10C0.00195312 15.5228 4.47911 20 10.002 20Z" fill="#27273D"/>
<path opacity="0.9" d="M19.3824 6.52812H0.621094C2.0332 2.71641 5.69961 0 10.002 0C14.3043 0 17.9707 2.71641 19.3824 6.52812Z" fill="#ED5F60"/>
<path opacity="0.9" d="M19.3819 13.4707H0.6206C-0.206867 11.2302 -0.206867 8.76784 0.6206 6.52734H19.3819C19.5211 6.90288 19.6373 7.28653 19.73 7.67617C20.1864 9.59988 20.0653 11.6155 19.3819 13.4707Z" fill="white"/>
<path opacity="0.9" d="M10.002 20.0012C7.95872 20.0012 5.96447 19.3756 4.2874 18.2085C2.61033 17.0413 1.33087 15.3886 0.621094 13.4727H19.3824C19.2371 13.8661 19.0669 14.2498 18.8727 14.6215C18.0275 16.2437 16.7536 17.6031 15.1895 18.5517C13.6254 19.5002 11.8312 20.0016 10.002 20.0012Z" fill="#43A047"/>
<path opacity="0.9" d="M11.3105 0.0847658C7.58476 0.571875 4.5043 3.10938 3.23828 6.53008H0.621094C2.0332 2.71641 5.69961 1.20806e-07 10.002 1.20806e-07C10.4395 -6.74931e-05 10.8766 0.0282472 11.3105 0.0847658Z" fill="#ED5F60"/>
<path opacity="0.9" d="M2.61865 9.99922C2.61727 11.184 2.82693 12.3595 3.23779 13.4707H0.6206C-0.206867 11.2302 -0.206867 8.76784 0.6206 6.52734H3.23779C3.09939 6.90293 2.98394 7.28658 2.89209 7.67617C2.71043 8.43717 2.61866 9.21684 2.61865 9.99922Z" fill="white"/>
<path opacity="0.9" d="M11.3105 19.9164C10.8766 19.9729 10.4395 20.0013 10.002 20.0012C7.95872 20.0012 5.96447 19.3756 4.2874 18.2085C2.61033 17.0413 1.33087 15.3886 0.621094 13.4727H3.23828C3.8703 15.1796 4.95596 16.6818 6.37837 17.8175C7.80078 18.9533 9.50604 19.6795 11.3105 19.918V19.9164Z" fill="#43A047"/>
<path opacity="0.9" d="M15.9406 4.40469C16.2918 4.40469 16.5766 4.11997 16.5766 3.76875C16.5766 3.41753 16.2918 3.13281 15.9406 3.13281C15.5894 3.13281 15.3047 3.41753 15.3047 3.76875C15.3047 4.11997 15.5894 4.40469 15.9406 4.40469Z" fill="white"/>
<path opacity="0.9" d="M15.0051 3.27969C15.2538 3.27969 15.4555 3.07804 15.4555 2.8293C15.4555 2.58055 15.2538 2.37891 15.0051 2.37891C14.7563 2.37891 14.5547 2.58055 14.5547 2.8293C14.5547 3.07804 14.7563 3.27969 15.0051 3.27969Z" fill="white"/>
<path opacity="0.9" d="M10.0023 13.118C11.7252 13.118 13.1219 11.7213 13.1219 9.99844C13.1219 8.27557 11.7252 6.87891 10.0023 6.87891C8.27947 6.87891 6.88281 8.27557 6.88281 9.99844C6.88281 11.7213 8.27947 13.118 10.0023 13.118Z" fill="#495F6A"/>
<path opacity="0.9" d="M12.4566 9.74453L12.3109 9.71211C12.3109 9.70039 12.3082 9.68867 12.3066 9.67734L12.4387 9.60781C12.461 9.59627 12.4788 9.57742 12.4889 9.55439C12.4991 9.53137 12.5011 9.50555 12.4945 9.48125L12.4191 9.19922C12.4126 9.17489 12.398 9.15352 12.3777 9.13861C12.3574 9.1237 12.3326 9.11615 12.3074 9.11719L12.1586 9.12344C12.1543 9.1125 12.15 9.10156 12.1453 9.09062L12.2547 8.99023C12.2733 8.97328 12.2855 8.95047 12.2894 8.9256C12.2932 8.90072 12.2884 8.87529 12.2758 8.85352L12.1297 8.60039C12.1171 8.57859 12.0975 8.56174 12.0741 8.55265C12.0506 8.54355 12.0247 8.54275 12.0008 8.55039L11.8586 8.59492C11.8516 8.58555 11.8441 8.57656 11.8371 8.56758L11.9172 8.44141C11.9307 8.42011 11.9366 8.39485 11.9338 8.36979C11.931 8.34472 11.9198 8.32135 11.902 8.30352L11.6957 8.09727C11.6779 8.07943 11.6545 8.0682 11.6294 8.06544C11.6044 8.06267 11.5791 8.06852 11.5578 8.08203L11.4316 8.1625L11.4043 8.14102L11.4488 7.99883C11.4565 7.97486 11.4557 7.949 11.4466 7.92555C11.4375 7.9021 11.4206 7.88247 11.3988 7.86992L11.1457 7.72383C11.1239 7.7112 11.0985 7.7064 11.0736 7.71024C11.0487 7.71408 11.0259 7.72632 11.009 7.74492L10.9086 7.8543L10.8758 7.84102L10.882 7.69219C10.8831 7.66702 10.8755 7.64225 10.8606 7.62194C10.8457 7.60164 10.8243 7.58701 10.8 7.58047L10.518 7.50508C10.4937 7.49863 10.468 7.50065 10.4451 7.5108C10.4221 7.52096 10.4033 7.53865 10.3918 7.56094L10.3223 7.69375L10.2875 7.68945L10.2551 7.54375C10.2497 7.51915 10.2361 7.49713 10.2165 7.48135C10.1969 7.46557 10.1724 7.45699 10.1473 7.45703H9.85508C9.8299 7.45699 9.80547 7.46557 9.78586 7.48135C9.76624 7.49713 9.75262 7.51915 9.74727 7.54375L9.71484 7.68945L9.68008 7.69375L9.61055 7.56094C9.59901 7.53857 9.58016 7.52083 9.55713 7.51066C9.5341 7.5005 9.50829 7.49853 9.48398 7.50508L9.20195 7.58047C9.17763 7.58701 9.15625 7.60164 9.14134 7.62194C9.12644 7.64225 9.11888 7.66702 9.11992 7.69219L9.12617 7.84102L9.09336 7.8543L8.99297 7.74492C8.97602 7.72632 8.95321 7.71408 8.92833 7.71024C8.90346 7.7064 8.87802 7.7112 8.85625 7.72383L8.60313 7.86992C8.58133 7.88247 8.56448 7.9021 8.55538 7.92555C8.54629 7.949 8.54549 7.97486 8.55312 7.99883L8.59766 8.14102L8.57031 8.1625L8.44453 8.08438C8.42324 8.07086 8.39798 8.06501 8.37291 8.06778C8.34785 8.07055 8.32447 8.08178 8.30664 8.09961L8.10039 8.30586C8.08256 8.32369 8.07133 8.34706 8.06856 8.37213C8.06579 8.3972 8.07164 8.42246 8.08516 8.44375L8.16523 8.56992C8.1582 8.57891 8.15078 8.58789 8.14375 8.59727L8.00156 8.55273C7.9776 8.5451 7.95174 8.5459 7.92829 8.55499C7.90484 8.56409 7.88521 8.58094 7.87266 8.60273L7.72656 8.85586C7.71393 8.87763 7.70913 8.90307 7.71297 8.92794C7.71681 8.95282 7.72905 8.97563 7.74766 8.99258L7.85703 9.09297C7.85234 9.10391 7.84805 9.11484 7.84375 9.12578L7.69492 9.11953C7.66975 9.11849 7.64498 9.12604 7.62468 9.14095C7.60437 9.15586 7.58975 9.17724 7.5832 9.20156L7.50781 9.48359C7.50185 9.50756 7.50411 9.53284 7.51424 9.55537C7.52437 9.5779 7.54178 9.59637 7.56367 9.60781L7.6957 9.67695C7.6957 9.68828 7.69297 9.7 7.69141 9.71172L7.5457 9.74414C7.52111 9.7495 7.49908 9.76312 7.48331 9.78273C7.46753 9.80235 7.45894 9.82678 7.45898 9.85195V10.1441C7.45894 10.1693 7.46753 10.1937 7.48331 10.2134C7.49908 10.233 7.52111 10.2466 7.5457 10.252L7.69141 10.2844C7.69141 10.2961 7.69414 10.3078 7.6957 10.3191L7.56367 10.3891C7.5413 10.4006 7.52356 10.4195 7.5134 10.4425C7.50323 10.4655 7.50126 10.4913 7.50781 10.5156L7.5832 10.7977C7.58975 10.822 7.60437 10.8434 7.62468 10.8583C7.64498 10.8732 7.66975 10.8807 7.69492 10.8797L7.84375 10.8734C7.84805 10.8844 7.85234 10.8953 7.85703 10.9062L7.74766 11.0066C7.72905 11.0236 7.71681 11.0464 7.71297 11.0713C7.70913 11.0962 7.71393 11.1216 7.72656 11.1434L7.87266 11.3965C7.88521 11.4183 7.90484 11.4351 7.92829 11.4442C7.95174 11.4533 7.9776 11.4541 8.00156 11.4465L8.14375 11.402C8.15078 11.4113 8.1582 11.4203 8.16523 11.4293L8.08711 11.5551C8.0736 11.5764 8.06774 11.6016 8.07051 11.6267C8.07328 11.6518 8.08451 11.6751 8.10234 11.693L8.30859 11.8992C8.32642 11.9171 8.3498 11.9283 8.37486 11.931C8.39993 11.9338 8.42519 11.928 8.44648 11.9145L8.57266 11.8344L8.6 11.8559L8.55547 11.998C8.54783 12.022 8.54863 12.0479 8.55773 12.0713C8.56682 12.0948 8.58367 12.1144 8.60547 12.127L8.85859 12.273C8.88036 12.2857 8.9058 12.2905 8.93068 12.2866C8.95555 12.2828 8.97836 12.2706 8.99531 12.252L9.0957 12.1426L9.12852 12.1559L9.12227 12.3047C9.12122 12.3299 9.12878 12.3546 9.14369 12.3749C9.1586 12.3952 9.17997 12.4099 9.2043 12.4164L9.48633 12.4918C9.5103 12.4978 9.53558 12.4955 9.55811 12.4854C9.58063 12.4752 9.5991 12.4578 9.61055 12.4359L9.67969 12.3039L9.71445 12.3082L9.74688 12.4539C9.75223 12.4785 9.76585 12.5005 9.78547 12.5163C9.80508 12.5321 9.82951 12.5407 9.85469 12.5406H10.1469C10.172 12.5407 10.1965 12.5321 10.2161 12.5163C10.2357 12.5005 10.2493 12.4785 10.2547 12.4539L10.2871 12.3082L10.3219 12.3039L10.3918 12.4359C10.4033 12.4583 10.4222 12.476 10.4452 12.4862C10.4682 12.4964 10.4941 12.4983 10.5184 12.4918L10.8004 12.4164C10.8247 12.4099 10.8461 12.3952 10.861 12.3749C10.8759 12.3546 10.8835 12.3299 10.8824 12.3047L10.8762 12.1559L10.909 12.1426L11.0094 12.252C11.0263 12.2706 11.0491 12.2828 11.074 12.2866C11.0989 12.2905 11.1243 12.2857 11.1461 12.273L11.3992 12.127C11.421 12.1144 11.4379 12.0948 11.447 12.0713C11.4561 12.0479 11.4569 12.022 11.4492 11.998L11.4047 11.8559L11.432 11.8344L11.5582 11.9145C11.5795 11.928 11.6048 11.9338 11.6298 11.931C11.6549 11.9283 11.6783 11.9171 11.6961 11.8992L11.9023 11.693C11.9202 11.6751 11.9314 11.6518 11.9342 11.6267C11.9369 11.6016 11.9311 11.5764 11.9176 11.5551L11.8371 11.4289C11.8441 11.4199 11.8516 11.4109 11.8586 11.4016L12.0008 11.4461C12.0247 11.4537 12.0506 11.4529 12.0741 11.4438C12.0975 11.4347 12.1171 11.4179 12.1297 11.3961L12.2758 11.143C12.2884 11.1212 12.2932 11.0958 12.2894 11.0709C12.2855 11.046 12.2733 11.0232 12.2547 11.0062L12.1453 10.9059C12.15 10.8949 12.1543 10.884 12.1586 10.873L12.3074 10.8793C12.3326 10.8803 12.3574 10.8728 12.3777 10.8579C12.398 10.843 12.4126 10.8216 12.4191 10.7973L12.4945 10.5152C12.501 10.491 12.499 10.4653 12.4888 10.4423C12.4786 10.4194 12.461 10.4006 12.4387 10.3891L12.3059 10.3195C12.3059 10.3082 12.3086 10.2965 12.3102 10.2848L12.4559 10.2523C12.4805 10.247 12.5025 10.2334 12.5183 10.2138C12.534 10.1941 12.5426 10.1697 12.5426 10.1445V9.85234C12.5427 9.82728 12.5342 9.80293 12.5186 9.78333C12.5029 9.76373 12.4811 9.75004 12.4566 9.74453Z" fill="white"/>
<path opacity="0.9" d="M10.4803 9.99883C10.481 10.0079 10.481 10.0171 10.4803 10.0262C10.4796 10.0513 10.4764 10.0763 10.4709 10.1008C10.4633 10.1363 10.4515 10.1708 10.4357 10.2035C10.4229 10.231 10.4074 10.2571 10.3896 10.2816C10.3683 10.3104 10.3436 10.3367 10.3162 10.3598C10.2986 10.3755 10.2797 10.3896 10.2596 10.402C10.229 10.4216 10.1962 10.4375 10.1619 10.4492C10.1278 10.462 10.0923 10.4702 10.0561 10.4738C10.0203 10.4785 9.98402 10.4785 9.94824 10.4738C9.91976 10.471 9.89163 10.4654 9.86425 10.457C9.8295 10.4469 9.79617 10.4325 9.76504 10.4141C9.7416 10.401 9.71938 10.3858 9.69863 10.3688C9.67033 10.346 9.645 10.3197 9.62324 10.2906C9.60346 10.2665 9.58643 10.2403 9.57246 10.2125C9.55614 10.18 9.54393 10.1456 9.53613 10.1102C9.52913 10.0828 9.52507 10.0548 9.52402 10.0266C9.52324 10.0175 9.52324 10.0083 9.52402 9.99922C9.52416 9.97199 9.52651 9.94482 9.53105 9.91797C9.53482 9.8936 9.54097 9.86965 9.54941 9.84648C9.56044 9.81193 9.57594 9.77897 9.59551 9.74844C9.60865 9.72581 9.62409 9.7046 9.6416 9.68516C9.66532 9.65762 9.6922 9.63298 9.72168 9.61172C9.77774 9.57104 9.84177 9.54269 9.90957 9.52852C9.92324 9.52617 9.93613 9.52422 9.94863 9.52266C9.96113 9.52109 9.98418 9.51953 10.0025 9.51953C10.0209 9.51953 10.0389 9.51953 10.0564 9.52266C10.078 9.5246 10.0993 9.52852 10.1201 9.53438C10.1555 9.54293 10.1897 9.55606 10.2217 9.57344C10.2479 9.58654 10.2726 9.60238 10.2955 9.6207C10.3248 9.64221 10.3511 9.66757 10.3736 9.69609C10.39 9.71475 10.4044 9.73504 10.4166 9.75664C10.4352 9.78769 10.45 9.82087 10.4607 9.85547C10.4675 9.876 10.4726 9.89703 10.476 9.91836C10.4796 9.94502 10.481 9.97193 10.4803 9.99883Z" fill="#495F6A"/>
<path opacity="0.9" d="M10.4803 9.99883C10.481 10.0079 10.481 10.0171 10.4803 10.0262C10.4796 10.0513 10.4764 10.0763 10.4709 10.1008C10.4633 10.1363 10.4515 10.1708 10.4357 10.2035C10.4229 10.231 10.4074 10.2571 10.3896 10.2816C10.3683 10.3104 10.3436 10.3367 10.3162 10.3598C10.2986 10.3755 10.2797 10.3896 10.2596 10.402C10.229 10.4216 10.1962 10.4375 10.1619 10.4492C10.1278 10.462 10.0923 10.4702 10.0561 10.4738C10.0203 10.4785 9.98402 10.4785 9.94824 10.4738C9.91976 10.471 9.89163 10.4654 9.86425 10.457C9.8295 10.4469 9.79617 10.4325 9.76504 10.4141C9.7416 10.401 9.71938 10.3858 9.69863 10.3688C9.67033 10.346 9.645 10.3197 9.62324 10.2906C9.60346 10.2665 9.58643 10.2403 9.57246 10.2125C9.55614 10.18 9.54393 10.1456 9.53613 10.1102C9.52913 10.0828 9.52507 10.0548 9.52402 10.0266C9.52324 10.0175 9.52324 10.0083 9.52402 9.99922C9.52416 9.97199 9.52651 9.94482 9.53105 9.91797C9.53482 9.8936 9.54097 9.86965 9.54941 9.84648C9.56044 9.81193 9.57594 9.77897 9.59551 9.74844C9.60865 9.72581 9.62409 9.7046 9.6416 9.68516C9.66532 9.65762 9.6922 9.63298 9.72168 9.61172C9.77774 9.57104 9.84177 9.54269 9.90957 9.52852C9.92324 9.52617 9.93613 9.52422 9.94863 9.52266C9.96113 9.52109 9.98418 9.51953 10.0025 9.51953C10.0209 9.51953 10.0389 9.51953 10.0564 9.52266C10.078 9.5246 10.0993 9.52852 10.1201 9.53438C10.1555 9.54293 10.1897 9.55606 10.2217 9.57344C10.2479 9.58654 10.2726 9.60238 10.2955 9.6207C10.3248 9.64221 10.3511 9.66757 10.3736 9.69609C10.39 9.71475 10.4044 9.73504 10.4166 9.75664C10.4352 9.78769 10.45 9.82087 10.4607 9.85547C10.4675 9.876 10.4726 9.89703 10.476 9.91836C10.4796 9.94502 10.481 9.97193 10.4803 9.99883Z" fill="#495F6A"/>
<path opacity="0.9" d="M9.33711 10.0266H7.99766C7.98326 10.0266 7.96945 10.0208 7.95926 10.0107C7.94908 10.0005 7.94336 9.98667 7.94336 9.97227C7.94336 9.95787 7.94908 9.94405 7.95926 9.93387C7.96945 9.92369 7.98326 9.91797 7.99766 9.91797H9.34023C9.33761 9.94497 9.33657 9.9721 9.33711 9.99922V10.0266Z" fill="#495F6A"/>
<path opacity="0.9" d="M9.39775 10.2809L8.1622 10.7789C8.15585 10.7814 8.1491 10.7827 8.14228 10.7828C8.12966 10.7828 8.11742 10.7785 8.10768 10.7704C8.09793 10.7624 8.09129 10.7512 8.08888 10.7389C8.08648 10.7265 8.08847 10.7136 8.09451 10.7025C8.10054 10.6915 8.11025 10.6828 8.12197 10.6781L9.36025 10.1797C9.37005 10.2144 9.38259 10.2482 9.39775 10.2809Z" fill="#495F6A"/>
<path opacity="0.9" d="M8.11706 9.21349C8.12261 9.20025 8.1331 9.1897 8.1463 9.18408C8.15951 9.17847 8.17438 9.17822 8.18776 9.18341L9.41823 9.67911C9.40043 9.71069 9.3854 9.74376 9.37331 9.77794L8.14753 9.28419C8.13416 9.2788 8.12345 9.26835 8.11775 9.25511C8.11204 9.24187 8.11179 9.22691 8.11706 9.21349Z" fill="#495F6A"/>
<path opacity="0.9" d="M9.56563 10.5035L8.61329 11.4551C8.60821 11.4603 8.60213 11.4644 8.59542 11.4672C8.58871 11.4701 8.58151 11.4715 8.57423 11.4715C8.56346 11.4715 8.55293 11.4683 8.54395 11.4623C8.53498 11.4564 8.52797 11.4479 8.5238 11.438C8.51963 11.4281 8.51848 11.4171 8.5205 11.4065C8.52252 11.396 8.52763 11.3862 8.53516 11.3785L9.4879 10.4258C9.51157 10.4538 9.53757 10.4798 9.56563 10.5035Z" fill="#495F6A"/>
<path opacity="0.9" d="M8.556 8.60154C8.55065 8.59653 8.54639 8.59048 8.54348 8.58376C8.54057 8.57704 8.53906 8.5698 8.53906 8.56247C8.53906 8.55515 8.54057 8.5479 8.54348 8.54118C8.54639 8.53447 8.55065 8.52842 8.556 8.52341C8.56616 8.51341 8.57983 8.50781 8.59408 8.50781C8.60834 8.50781 8.62201 8.51341 8.63217 8.52341L9.58608 9.47732C9.55811 9.49994 9.53198 9.52476 9.50795 9.55154L8.556 8.60154Z" fill="#495F6A"/>
<path opacity="0.9" d="M9.69492 10.5898C9.72672 10.607 9.76007 10.6211 9.79453 10.632L9.30391 11.85C9.29974 11.86 9.2927 11.8686 9.28366 11.8747C9.27463 11.8807 9.264 11.884 9.25313 11.884C9.24619 11.8838 9.23933 11.8825 9.23281 11.8801C9.21955 11.8745 9.20902 11.8639 9.20347 11.8506C9.19792 11.8373 9.1978 11.8224 9.20313 11.809L9.69492 10.5898Z" fill="#495F6A"/>
<path opacity="0.9" d="M9.22836 8.13273C9.225 8.12603 9.22308 8.1187 9.22272 8.11121C9.22236 8.10372 9.22356 8.09624 9.22625 8.08925C9.22894 8.08225 9.23306 8.07589 9.23834 8.07058C9.24363 8.06526 9.24997 8.06111 9.25695 8.05838C9.26393 8.05566 9.2714 8.05441 9.27889 8.05474C9.28638 8.05506 9.29372 8.05694 9.30044 8.06026C9.30716 8.06358 9.31311 8.06827 9.31792 8.07402C9.32273 8.07977 9.32628 8.08646 9.32836 8.09367L9.83617 9.35499C9.80107 9.36378 9.76682 9.37568 9.73383 9.39054L9.22836 8.13273Z" fill="#495F6A"/>
<path opacity="0.9" d="M10.0012 9.33477C9.98281 9.33477 9.96484 9.33477 9.94727 9.33672V7.99531C9.94727 7.98102 9.95294 7.9673 9.96305 7.95719C9.97316 7.94709 9.98688 7.94141 10.0012 7.94141C10.0155 7.94141 10.0292 7.94709 10.0393 7.95719C10.0494 7.9673 10.0551 7.98102 10.0551 7.99531V9.33477C10.0375 9.33477 10.0195 9.33477 10.0012 9.33477Z" fill="#495F6A"/>
<path opacity="0.9" d="M10.0012 10.666C10.0195 10.666 10.0375 10.666 10.0551 10.6641V12.0035C10.0551 12.0178 10.0494 12.0315 10.0393 12.0416C10.0292 12.0517 10.0155 12.0574 10.0012 12.0574C9.98688 12.0574 9.97316 12.0517 9.96305 12.0416C9.95294 12.0315 9.94727 12.0178 9.94727 12.0035V10.6641C9.96484 10.6641 9.98281 10.666 10.0012 10.666Z" fill="#495F6A"/>
<path opacity="0.9" d="M10.2906 9.40059C10.258 9.38492 10.2242 9.37186 10.1895 9.36153L10.7 8.09434C10.702 8.08705 10.7056 8.08026 10.7104 8.07442C10.7152 8.06858 10.7212 8.06382 10.728 8.06043C10.7348 8.05704 10.7422 8.0551 10.7497 8.05475C10.7573 8.05439 10.7648 8.05562 10.7719 8.05836C10.779 8.06109 10.7854 8.06528 10.7907 8.07064C10.7961 8.076 10.8002 8.08242 10.803 8.08949C10.8057 8.09655 10.8069 8.10411 10.8065 8.11167C10.8061 8.11924 10.8042 8.12664 10.8008 8.1334L10.2906 9.40059Z" fill="#495F6A"/>
<path opacity="0.9" d="M10.8266 11.8082C10.8293 11.8148 10.8307 11.822 10.8306 11.8291C10.8306 11.8363 10.8292 11.8434 10.8264 11.85C10.8236 11.8566 10.8195 11.8626 10.8144 11.8677C10.8092 11.8727 10.8032 11.8766 10.7965 11.8793C10.79 11.8818 10.7831 11.8831 10.7762 11.8832C10.7654 11.8831 10.7549 11.8799 10.746 11.8738C10.7371 11.8678 10.7302 11.8592 10.7262 11.8492L10.2324 10.6234C10.2664 10.6112 10.2992 10.596 10.3305 10.5781L10.8266 11.8082Z" fill="#495F6A"/>
<path opacity="0.9" d="M10.4277 9.48581L11.3707 8.54284C11.3811 8.53274 11.395 8.52716 11.4095 8.52735C11.4239 8.52753 11.4378 8.53345 11.4479 8.54381C11.458 8.55417 11.4635 8.56812 11.4633 8.58259C11.4632 8.59706 11.4572 8.61086 11.4469 8.62096L10.5047 9.56354C10.4813 9.5355 10.4555 9.50949 10.4277 9.48581Z" fill="#495F6A"/>
<path opacity="0.9" d="M11.4672 11.3598C11.4775 11.3701 11.4834 11.3842 11.4834 11.3988C11.4834 11.4135 11.4775 11.4275 11.4672 11.4379C11.4568 11.4483 11.4428 11.4541 11.4281 11.4541C11.4135 11.4541 11.3994 11.4483 11.3891 11.4379L10.4473 10.4961C10.474 10.4721 10.4989 10.4459 10.5215 10.418L11.4672 11.3598Z" fill="#495F6A"/>
<path opacity="0.9" d="M10.5859 9.686L11.8359 9.1817C11.8489 9.17806 11.8628 9.17939 11.8749 9.18543C11.8869 9.19147 11.8963 9.20178 11.9012 9.21436C11.9061 9.22694 11.9061 9.24089 11.9013 9.25348C11.8964 9.26608 11.8871 9.27641 11.875 9.28248L10.625 9.78561C10.6151 9.75127 10.602 9.71792 10.5859 9.686Z" fill="#495F6A"/>
<path opacity="0.9" d="M11.9344 10.7516C11.9303 10.7615 11.9233 10.77 11.9145 10.776C11.9056 10.7821 11.8951 10.7854 11.8844 10.7855C11.8773 10.7854 11.8703 10.7841 11.8637 10.7816L10.6074 10.2738C10.6221 10.2408 10.6343 10.2067 10.6437 10.1719L11.9047 10.6797C11.9114 10.6824 11.9175 10.6865 11.9226 10.6916C11.9277 10.6967 11.9318 10.7027 11.9345 10.7094C11.9373 10.7161 11.9387 10.7233 11.9387 10.7305C11.9386 10.7377 11.9372 10.7449 11.9344 10.7516Z" fill="#495F6A"/>
<path opacity="0.9" d="M12.0594 9.97193C12.0594 9.98643 12.0536 10.0003 12.0434 10.0106C12.0331 10.0209 12.0192 10.0266 12.0047 10.0266H10.6652C10.6652 10.0176 10.6652 10.0083 10.6652 9.99927C10.6651 9.97211 10.6634 9.94498 10.6602 9.91802H12.0027C12.01 9.9177 12.0173 9.91886 12.0241 9.92143C12.031 9.92399 12.0372 9.9279 12.0425 9.93293C12.0478 9.93797 12.052 9.94401 12.0549 9.95071C12.0578 9.95741 12.0593 9.96463 12.0594 9.97193Z" fill="#495F6A"/>
</svg>
