<svg width="14" height="14" viewBox="0 0 14 14" fill="none" xmlns="http://www.w3.org/2000/svg">
<path d="M0.583172 6.99967C0.583172 7.50593 0.993578 7.91634 1.49984 7.91634H5.08317C5.63546 7.91634 6.08317 8.36406 6.08317 8.91634V12.4997C6.08317 13.0059 6.49358 13.4163 6.99984 13.4163C7.5061 13.4163 7.9165 13.0059 7.9165 12.4997V8.91634C7.9165 8.36406 8.36422 7.91634 8.9165 7.91634H12.4998C13.0061 7.91634 13.4165 7.50593 13.4165 6.99967C13.4165 6.49341 13.0061 6.08301 12.4998 6.08301H8.9165C8.36422 6.08301 7.9165 5.63529 7.9165 5.08301V1.49967C7.9165 0.993413 7.5061 0.583008 6.99984 0.583008C6.49358 0.583008 6.08317 0.993413 6.08317 1.49967V5.08301C6.08317 5.63529 5.63546 6.08301 5.08317 6.08301H1.49984C0.993577 6.08301 0.583172 6.49341 0.583172 6.99967Z" fill="#495F6A"/>
</svg>
