<svg width="18" height="12" viewBox="0 0 18 12" fill="none" xmlns="http://www.w3.org/2000/svg">
<path d="M18 6C18 5.44772 17.5523 5 17 5H6.23946C5.34922 5 4.90276 3.92425 5.53137 3.29388L6.70647 2.11549C7.09518 1.7257 7.09474 1.09474 6.70549 0.705492C6.31586 0.315859 5.68414 0.315859 5.29451 0.705492L0.707107 5.29289C0.316583 5.68342 0.316583 6.31658 0.707107 6.70711L5.29451 11.2945C5.68414 11.6841 6.31586 11.6841 6.70549 11.2945C7.09474 10.9053 7.09518 10.2743 6.70647 9.88451L5.53137 8.70612C4.90276 8.07575 5.34923 7 6.23946 7H17C17.5523 7 18 6.55228 18 6Z" fill="#495F6A"/>
</svg>
