<svg width="110" height="30" viewBox="0 0 110 30" fill="none" xmlns="http://www.w3.org/2000/svg">
<g clip-path="url(#clip0_3_59336)">
<path opacity="0.9" d="M18.8992 9.43708C18.7613 9.24973 18.5232 9.16465 18.2981 9.22266C17.7223 9.3709 16.6154 9.78426 15.799 10.8752C15.2082 11.6654 13.9582 11.1116 14.1443 10.1426C14.2285 9.70305 14.3939 9.21407 14.6728 8.67696C15.9657 6.18735 13.9853 4.28469 13.8439 4.15364C13.8384 4.14848 13.8328 4.14419 13.8263 4.13946C13.7602 4.09434 13.361 3.84555 12.9884 4.14633C12.9064 4.21251 10.9315 5.7654 8.93176 8.15661C6.77086 10.7407 4.81836 14.0248 4.81836 17.4061C4.81836 22.1447 8.67352 25.9994 13.4117 25.9994C18.1498 25.9994 22.005 22.1442 22.005 17.4061C22.005 14.5568 20.618 11.778 18.8979 9.43708H18.8992Z" fill="#422659"/>
<path opacity="0.9" d="M6.03129 8.14062H2.19805C1.61189 8.14062 1.13672 8.6158 1.13672 9.20195C1.13672 9.78811 1.61189 10.2633 2.19805 10.2633H6.03129C6.61744 10.2633 7.09262 9.78811 7.09262 9.20195C7.09262 8.6158 6.61744 8.14062 6.03129 8.14062Z" fill="#422659"/>
<path opacity="0.9" d="M3.75746 12.3828H1.06719C0.481032 12.3828 0.00585938 12.858 0.00585938 13.4441C0.00585938 14.0303 0.481032 14.5055 1.06719 14.5055H3.75746C4.34362 14.5055 4.81879 14.0303 4.81879 13.4441C4.81879 12.858 4.34362 12.3828 3.75746 12.3828Z" fill="#422659"/>
<path opacity="0.9" d="M3.22242 16.6289H2.84258C2.25642 16.6289 1.78125 17.1041 1.78125 17.6902C1.78125 18.2764 2.25642 18.7516 2.84258 18.7516H3.22242C3.80858 18.7516 4.28375 18.2764 4.28375 17.6902C4.28375 17.1041 3.80858 16.6289 3.22242 16.6289Z" fill="#422659"/>
<path opacity="0.9" d="M4.37602 20.8594H1.47734C0.891188 20.8594 0.416016 21.3345 0.416016 21.9207C0.416016 22.5069 0.891188 22.982 1.47734 22.982H4.37602C4.96217 22.982 5.43734 22.5069 5.43734 21.9207C5.43734 21.3345 4.96217 20.8594 4.37602 20.8594Z" fill="#422659"/>
<path opacity="0.9" d="M19.466 10.2449C19.2821 9.97032 19.093 9.7009 18.8992 9.43708C18.7613 9.24973 18.5232 9.16465 18.2981 9.22266C17.7223 9.3709 16.6154 9.78426 15.799 10.8752C15.2082 11.6654 13.9582 11.1116 14.1443 10.1426C14.2285 9.70305 14.3939 9.21407 14.6728 8.67696C15.9657 6.18735 13.9853 4.28469 13.8439 4.15364C13.8384 4.14848 13.8328 4.14419 13.8263 4.13946C13.7602 4.09434 13.361 3.84555 12.9884 4.14633C12.9064 4.21251 10.9315 5.7654 8.93176 8.15661C6.77086 10.7407 4.81836 14.0248 4.81836 17.4061C4.81836 18.6917 5.10281 19.912 5.61113 21.0086C6.26297 21.1194 6.93285 21.1774 7.61605 21.1774C13.8598 21.1774 18.9787 16.3636 19.4651 10.2449H19.466Z" fill="#422659"/>
<path opacity="0.9" d="M13.4239 22.9963C10.7229 22.9963 8.5332 20.8066 8.5332 18.1055C8.5332 15.4045 10.7229 13.2148 13.4239 13.2148C16.1249 13.2148 18.3146 15.4045 18.3146 18.1055C18.3146 20.8066 16.1249 22.9963 13.4239 22.9963Z" fill="white"/>
<path opacity="0.9" d="M15.3618 17.6585H13.9086V15.1135C13.9086 14.7921 13.6482 14.5312 13.3264 14.5312C13.0045 14.5312 12.7441 14.7916 12.7441 15.1135V18.2407C12.7441 18.5621 13.0045 18.823 13.3264 18.823H15.3618C15.6832 18.823 15.944 18.5626 15.944 18.2407C15.944 17.9189 15.6836 17.6585 15.3618 17.6585Z" fill="#422659"/>
</g>
<g opacity="0.9">
<path d="M30.061 8.00879H34.2959C36.2852 8.00879 37.7241 8.30615 38.6128 8.90088C39.5015 9.49561 39.9458 10.4355 39.9458 11.7207C39.9458 12.6094 39.6963 13.3442 39.1973 13.9253C38.7051 14.4995 37.9839 14.8721 37.0337 15.043V15.1455C39.3101 15.5352 40.4482 16.7314 40.4482 18.7344C40.4482 20.0742 39.9937 21.1201 39.0845 21.8721C38.1821 22.624 36.9175 23 35.2905 23H30.061V8.00879ZM31.8042 14.4277H34.6753C35.9058 14.4277 36.791 14.2363 37.3311 13.8535C37.8711 13.4639 38.1411 12.811 38.1411 11.895C38.1411 11.0542 37.8403 10.4492 37.2388 10.0801C36.6372 9.7041 35.6802 9.51611 34.3677 9.51611H31.8042V14.4277ZM31.8042 15.9043V21.5132H34.9316C36.1416 21.5132 37.0508 21.2808 37.6592 20.8159C38.2744 20.3442 38.582 19.6094 38.582 18.6113C38.582 17.6816 38.2676 16.998 37.6387 16.5605C37.0166 16.123 36.0664 15.9043 34.7881 15.9043H31.8042ZM45.1615 11.7617V19.0522C45.1615 19.9683 45.37 20.6519 45.787 21.103C46.204 21.5542 46.8568 21.7798 47.7455 21.7798C48.9213 21.7798 49.7792 21.4585 50.3192 20.8159C50.8661 20.1733 51.1395 19.124 51.1395 17.668V11.7617H52.8417V23H51.4369L51.1908 21.4927H51.0985C50.7499 22.0464 50.2645 22.4702 49.6424 22.7642C49.0272 23.0581 48.3231 23.2051 47.5301 23.2051C46.1629 23.2051 45.1376 22.8804 44.454 22.231C43.7772 21.5815 43.4388 20.5425 43.4388 19.1138V11.7617H45.1615ZM54.8171 11.7617H56.6423L59.1032 18.1704C59.6433 19.6333 59.9782 20.6895 60.1081 21.3389H60.1902C60.279 20.9902 60.4636 20.3955 60.7439 19.5547C61.031 18.707 61.9607 16.1094 63.5329 11.7617H65.3581L60.5285 24.5586C60.05 25.8232 59.4895 26.7188 58.8469 27.2451C58.2112 27.7783 57.4284 28.0449 56.4988 28.0449C55.9792 28.0449 55.4665 27.9868 54.9607 27.8706V26.5068C55.3366 26.5889 55.7571 26.6299 56.2219 26.6299C57.3908 26.6299 58.2248 25.9736 58.7238 24.6611L59.3493 23.0615L54.8171 11.7617Z" fill="#495F6A"/>
<path d="M73.1578 11.4336C74.4361 11.4336 75.4307 11.7651 76.1417 12.4282C76.8595 13.0845 77.2183 14.1406 77.2183 15.5967V23H74.8087V16.0479C74.8087 15.166 74.6275 14.5063 74.2652 14.0688C73.9029 13.6245 73.3424 13.4023 72.5836 13.4023C71.483 13.4023 70.7174 13.7407 70.2867 14.4175C69.8629 15.0942 69.651 16.0752 69.651 17.3604V23H67.2413V11.6489H69.1178L69.4561 13.187H69.5894C69.8355 12.7905 70.1397 12.4658 70.502 12.2129C70.8712 11.9531 71.2813 11.7583 71.7325 11.6284C72.1905 11.4985 72.6656 11.4336 73.1578 11.4336ZM90.7807 17.2988C90.7807 18.2422 90.6577 19.0796 90.4116 19.811C90.1655 20.5425 89.8066 21.1611 89.3349 21.667C88.8632 22.166 88.2958 22.5488 87.6328 22.8154C86.9697 23.0752 86.2211 23.2051 85.3871 23.2051C84.6079 23.2051 83.8935 23.0752 83.2441 22.8154C82.5947 22.5488 82.0307 22.166 81.5522 21.667C81.0805 21.1611 80.7148 20.5425 80.455 19.811C80.1953 19.0796 80.0654 18.2422 80.0654 17.2988C80.0654 16.0479 80.2807 14.9883 80.7114 14.1201C81.1489 13.2451 81.7709 12.5786 82.5776 12.1206C83.3842 11.6626 84.3447 11.4336 85.4589 11.4336C86.5048 11.4336 87.4277 11.6626 88.2275 12.1206C89.0273 12.5786 89.6528 13.2451 90.1039 14.1201C90.5551 14.9951 90.7807 16.0547 90.7807 17.2988ZM82.5468 17.2988C82.5468 18.126 82.6459 18.8335 82.8442 19.4214C83.0493 20.0093 83.3637 20.4604 83.7875 20.7749C84.2114 21.0825 84.7582 21.2363 85.4282 21.2363C86.0981 21.2363 86.645 21.0825 87.0688 20.7749C87.4926 20.4604 87.8037 20.0093 88.0019 19.4214C88.2001 18.8335 88.2993 18.126 88.2993 17.2988C88.2993 16.4717 88.2001 15.771 88.0019 15.1968C87.8037 14.6157 87.4926 14.1748 87.0688 13.874C86.645 13.5664 86.0947 13.4126 85.4179 13.4126C84.4199 13.4126 83.6918 13.7476 83.2338 14.4175C82.7758 15.0874 82.5468 16.0479 82.5468 17.2988ZM102.969 22.9897L101.533 17.709C101.465 17.4492 101.383 17.1348 101.287 16.7656C101.192 16.3965 101.096 16.0171 101 15.6274C100.905 15.231 100.816 14.8652 100.734 14.5303C100.658 14.1953 100.6 13.9355 100.559 13.751H100.477C100.443 13.9355 100.388 14.1953 100.313 14.5303C100.238 14.8652 100.153 15.231 100.057 15.6274C99.9612 16.0239 99.8655 16.4102 99.7698 16.7861C99.681 17.1621 99.5989 17.4834 99.5237 17.75L98.0164 22.9897H95.3709L92.1922 11.6387H94.6326L96.1092 17.2783C96.2049 17.6611 96.2972 18.0747 96.386 18.519C96.4817 18.9634 96.5638 19.3872 96.6321 19.7905C96.7005 20.1938 96.7518 20.5254 96.7859 20.7852H96.868C96.8953 20.6006 96.9329 20.3682 96.9808 20.0879C97.0286 19.8008 97.0833 19.5034 97.1448 19.1958C97.2063 18.8813 97.2679 18.5874 97.3294 18.314C97.3909 18.0337 97.449 17.8081 97.5037 17.6372L99.2469 11.6387H101.882L103.554 17.6372C103.629 17.897 103.711 18.2251 103.8 18.6216C103.888 19.0112 103.967 19.4043 104.035 19.8008C104.111 20.1904 104.158 20.5151 104.179 20.7749H104.261C104.288 20.5425 104.336 20.228 104.405 19.8315C104.48 19.4282 104.565 19.001 104.661 18.5498C104.757 18.0918 104.856 17.668 104.958 17.2783L106.466 11.6387H108.865L105.666 22.9897H102.969Z" fill="#1F292D"/>
</g>
<defs>
<clipPath id="clip0_3_59336">
<rect width="22" height="22" fill="white" transform="translate(0 4)"/>
</clipPath>
</defs>
</svg>
