<svg width="15" height="14" viewBox="0 0 15 14" fill="none" xmlns="http://www.w3.org/2000/svg">
<path d="M0.666665 6.99984C0.666665 6.49358 1.07707 6.08317 1.58333 6.08317H9.40828C10.2992 6.08317 10.7454 5.00603 10.1154 4.37606L7.34917 1.60984C6.99009 1.25077 6.99112 0.668274 7.35146 0.31047C7.71001 -0.0455502 8.28897 -0.0445271 8.64625 0.312758L14.6262 6.29273C15.0168 6.68326 15.0167 7.31642 14.6262 7.70694L8.64654 13.6866C8.28946 14.0437 7.71053 14.0437 7.35346 13.6866C6.99661 13.3298 6.99635 12.7513 7.35288 12.3941L10.1191 9.62298C10.7482 8.99275 10.3018 7.9165 9.41134 7.9165H1.58333C1.07707 7.9165 0.666665 7.5061 0.666665 6.99984Z" fill="#495F6A"/>
</svg>
