<svg width="138" height="51" viewBox="0 0 138 51" fill="none" xmlns="http://www.w3.org/2000/svg">
<rect x="0.5" y="1" width="137" height="48.9997" rx="9.5" fill="transparent"/>
<g filter="url(#filter0_ii_29_79296)">
<path d="M15.5 15.1837C15.5 14.9392 15.5347 14.7401 15.5898 14.581L26.7404 25.5015L15.5895 36.4214C15.5345 36.2626 15.5 36.0638 15.5 35.8192V15.1837Z" fill="#505B72" stroke="white"/>
<path d="M31.3346 28.8745L27.8919 25.5015L31.3345 22.1302L35.759 24.592C35.759 24.592 35.759 24.592 35.759 24.592C36.3361 24.9132 36.5004 25.2633 36.5004 25.5021C36.5004 25.7409 36.336 26.0912 35.759 26.4128C35.7589 26.4129 35.7588 26.4129 35.7587 26.413L31.3346 28.8745Z" fill="#505B72" stroke="white"/>
<g filter="url(#filter1_i_29_79296)">
<path d="M31.3398 29.4412L27.3152 25.5L15.4414 37.1287C15.8797 37.584 16.6048 37.64 17.4213 37.1865L31.3398 29.4412Z" fill="#505B72"/>
</g>
<path d="M16.2899 36.9976L27.3152 26.1998L30.5116 29.3299L17.1786 36.7494C16.8169 36.9503 16.5216 37.0144 16.2899 36.9976Z" stroke="white"/>
<path d="M17.1782 14.2505L30.5117 21.6693L27.3161 24.8002L16.2896 14.0022C16.5214 13.9852 16.8166 14.0493 17.1782 14.2505L17.1782 14.2505Z" fill="#505B72" stroke="white"/>
</g>
<path d="M50.3094 17.233C50.3094 18.035 50.0924 18.6734 49.6574 19.1501C49.1638 19.7167 48.5196 20 47.7285 20C46.9705 20 46.3255 19.7128 45.796 19.1386C45.2656 18.5634 45.0004 17.8513 45.0004 17.0014C45.0004 16.1505 45.2656 15.4385 45.796 14.8642C46.3255 14.289 46.9705 14.0019 47.7285 14.0019C48.1048 14.0019 48.4645 14.0823 48.8058 14.2421C49.148 14.4029 49.422 14.6163 49.6268 14.8833L49.1655 15.3887C48.8181 14.9341 48.3393 14.7072 47.7276 14.7072C47.1744 14.7072 46.6966 14.9197 46.2931 15.3447C45.8896 15.7696 45.6883 16.3219 45.6883 17.0004C45.6883 17.679 45.8896 18.2313 46.2931 18.6562C46.6966 19.0811 47.1744 19.2936 47.7276 19.2936C48.314 19.2936 48.8032 19.0802 49.1944 18.6524C49.4482 18.3739 49.5953 17.9862 49.6347 17.4895H47.7276V16.7994H50.2718C50.2981 16.9497 50.3094 17.0942 50.3094 17.233Z" fill="white"/>
<path d="M54.3442 14.8346H51.9532V16.655H54.1097V17.345H51.9532V19.1654H54.3442V19.8718H51.2784V14.1292H54.3442V14.8346Z" fill="white"/>
<path d="M57.1894 19.8718H56.5147V14.8346H55.0478V14.1292H58.6563V14.8346H57.1894V19.8718Z" fill="white"/>
<path d="M61.267 19.8718V14.1292H61.9418V19.8718H61.267Z" fill="white"/>
<path d="M64.9343 19.8718H64.2595V14.8346H62.7926V14.1292H66.4011V14.8346H64.9343V19.8718Z" fill="white"/>
<path d="M73.2319 19.13C72.7155 19.71 72.074 20 71.3065 20C70.5389 20 69.8974 19.71 69.3819 19.13C68.8655 18.55 68.6082 17.8398 68.6082 17.0005C68.6082 16.1611 68.8655 15.4509 69.3819 14.871C69.8974 14.291 70.5389 14 71.3065 14C72.0696 14 72.7103 14.2919 73.2284 14.8748C73.7465 15.4576 74.0056 16.1659 74.0056 17.0005C74.0056 17.8398 73.7474 18.55 73.2319 19.13ZM69.8799 18.6486C70.2685 19.0793 70.7437 19.2937 71.3065 19.2937C71.8692 19.2937 72.3453 19.0783 72.733 18.6486C73.1216 18.2179 73.3168 17.6685 73.3168 17.0005C73.3168 16.3324 73.1216 15.7831 72.733 15.3524C72.3453 14.9217 71.8692 14.7073 71.3065 14.7073C70.7437 14.7073 70.2685 14.9226 69.8799 15.3524C69.4921 15.7831 69.297 16.3324 69.297 17.0005C69.297 17.6685 69.4921 18.2179 69.8799 18.6486Z" fill="white"/>
<path d="M74.9526 19.8718V14.1292H75.7735L78.3256 18.596H78.3545L78.3256 17.4896V14.1292H79.0004V19.8718H78.2959L75.6256 15.1878H75.5967L75.6256 16.2942V19.8718H74.9526Z" fill="white"/>
<path d="M50.3094 17.233C50.3094 18.035 50.0924 18.6734 49.6574 19.1501C49.1638 19.7167 48.5196 20 47.7285 20C46.9705 20 46.3255 19.7128 45.796 19.1386C45.2656 18.5634 45.0004 17.8513 45.0004 17.0014C45.0004 16.1505 45.2656 15.4385 45.796 14.8642C46.3255 14.289 46.9705 14.0019 47.7285 14.0019C48.1048 14.0019 48.4645 14.0823 48.8058 14.2421C49.148 14.4029 49.422 14.6163 49.6268 14.8833L49.1655 15.3887C48.8181 14.9341 48.3393 14.7072 47.7276 14.7072C47.1744 14.7072 46.6966 14.9197 46.2931 15.3447C45.8896 15.7696 45.6883 16.3219 45.6883 17.0004C45.6883 17.679 45.8896 18.2313 46.2931 18.6562C46.6966 19.0811 47.1744 19.2936 47.7276 19.2936C48.314 19.2936 48.8032 19.0802 49.1944 18.6524C49.4482 18.3739 49.5953 17.9862 49.6347 17.4895H47.7276V16.7994H50.2718C50.2981 16.9497 50.3094 17.0942 50.3094 17.233Z" stroke="white" stroke-width="0.22" stroke-miterlimit="10"/>
<path d="M54.3442 14.8346H51.9532V16.655H54.1097V17.345H51.9532V19.1654H54.3442V19.8718H51.2784V14.1292H54.3442V14.8346Z" stroke="white" stroke-width="0.22" stroke-miterlimit="10"/>
<path d="M57.1894 19.8718H56.5147V14.8346H55.0478V14.1292H58.6563V14.8346H57.1894V19.8718Z" stroke="white" stroke-width="0.22" stroke-miterlimit="10"/>
<path d="M61.267 19.8718V14.1292H61.9418V19.8718H61.267Z" stroke="white" stroke-width="0.22" stroke-miterlimit="10"/>
<path d="M64.9343 19.8718H64.2595V14.8346H62.7926V14.1292H66.4011V14.8346H64.9343V19.8718Z" stroke="white" stroke-width="0.22" stroke-miterlimit="10"/>
<path d="M73.2319 19.13C72.7155 19.71 72.074 20 71.3065 20C70.5389 20 69.8974 19.71 69.3819 19.13C68.8655 18.55 68.6082 17.8398 68.6082 17.0005C68.6082 16.1611 68.8655 15.4509 69.3819 14.871C69.8974 14.291 70.5389 14 71.3065 14C72.0696 14 72.7103 14.2919 73.2284 14.8748C73.7465 15.4576 74.0056 16.1659 74.0056 17.0005C74.0056 17.8398 73.7474 18.55 73.2319 19.13ZM69.8799 18.6486C70.2685 19.0793 70.7437 19.2937 71.3065 19.2937C71.8692 19.2937 72.3453 19.0783 72.733 18.6486C73.1216 18.2179 73.3168 17.6685 73.3168 17.0005C73.3168 16.3324 73.1216 15.7831 72.733 15.3524C72.3453 14.9217 71.8692 14.7073 71.3065 14.7073C70.7437 14.7073 70.2685 14.9226 69.8799 15.3524C69.4921 15.7831 69.297 16.3324 69.297 17.0005C69.297 17.6685 69.4921 18.2179 69.8799 18.6486Z" stroke="white" stroke-width="0.22" stroke-miterlimit="10"/>
<path d="M74.9526 19.8718V14.1292H75.7735L78.3256 18.596H78.3545L78.3256 17.4896V14.1292H79.0004V19.8718H78.2959L75.6256 15.1878H75.5967L75.6256 16.2942V19.8718H74.9526Z" stroke="white" stroke-width="0.22" stroke-miterlimit="10"/>
<path d="M69.9289 26.8671C67.7648 26.8671 66.0011 28.3378 66.0011 30.3634C66.0011 32.3766 67.7648 33.8597 69.9289 33.8597C72.0938 33.8597 73.8576 32.3766 73.8576 30.3634C73.8566 28.3378 72.0929 26.8671 69.9289 26.8671ZM69.9289 32.4835C68.7429 32.4835 67.7207 31.6096 67.7207 30.3642C67.7207 29.1056 68.7438 28.2449 69.9289 28.2449C71.1148 28.2449 72.137 29.1056 72.137 30.3642C72.137 31.6088 71.1148 32.4835 69.9289 32.4835ZM61.3593 26.8671C59.1953 26.8671 57.4315 28.3378 57.4315 30.3634C57.4315 32.3766 59.1953 33.8597 61.3593 33.8597C63.5242 33.8597 65.288 32.3766 65.288 30.3634C65.288 28.3378 63.5242 26.8671 61.3593 26.8671ZM61.3593 32.4835C60.1733 32.4835 59.1511 31.6096 59.1511 30.3642C59.1511 29.1056 60.1742 28.2449 61.3593 28.2449C62.5453 28.2449 63.5675 29.1056 63.5675 30.3642C63.5684 31.6088 62.5453 32.4835 61.3593 32.4835ZM51.1667 27.9407V29.4237H55.1396C55.0209 30.2581 54.7099 30.8673 54.2352 31.2907C53.6574 31.8069 52.753 32.3766 51.1667 32.3766C48.7212 32.3766 46.8093 30.6149 46.8093 28.4298C46.8093 26.2447 48.7212 24.483 51.1667 24.483C52.4861 24.483 53.4494 24.9467 54.1607 25.5427L55.3319 24.4962C54.3382 23.6486 53.0198 23 51.1667 23C47.8168 23 45.0004 25.4366 45.0004 28.4298C45.0004 31.423 47.8168 33.8597 51.1667 33.8597C52.9747 33.8597 54.3392 33.3294 55.4055 32.3363C56.5022 31.3564 56.8436 29.9786 56.8436 28.8664C56.8436 28.5227 56.8142 28.2046 56.7543 27.9399L51.1667 27.9407ZM92.8534 29.0924C92.5277 28.3115 91.534 26.8671 89.5034 26.8671C87.4875 26.8671 85.8121 28.2843 85.8121 30.3634C85.8121 32.3232 87.4728 33.8597 89.6957 33.8597C91.4889 33.8597 92.5267 32.8797 92.9573 32.31L91.6232 31.5151C91.1788 32.0979 90.5707 32.4819 89.6957 32.4819C88.8216 32.4819 88.1987 32.1243 87.7985 31.4222L93.0309 29.4887L92.8534 29.0924ZM87.5169 30.2581C87.4728 28.9066 88.6882 28.2186 89.5632 28.2186C90.245 28.2186 90.8228 28.5235 91.016 28.9601L87.5169 30.2581ZM83.2635 33.6484H84.9821V23.3716H83.2635V33.6484ZM80.4462 27.6489H80.3873C80.0018 27.2378 79.2602 26.8671 78.3273 26.8671C76.3703 26.8671 74.5771 28.4035 74.5771 30.3773C74.5771 32.3372 76.3703 33.8605 78.3273 33.8605C79.2611 33.8605 80.0018 33.4897 80.3873 33.0664H80.4462V33.5695C80.4462 34.907 79.6457 35.6222 78.3567 35.6222C77.3041 35.6222 76.6518 34.9473 76.385 34.3776L74.888 34.9341C75.3177 35.8606 76.4586 37 78.3567 37C80.3726 37 82.0775 35.9403 82.0775 33.3574V27.08H80.4471V27.6489H80.4462ZM78.4754 32.4835C77.2894 32.4835 76.2967 31.5957 76.2967 30.3773C76.2967 29.145 77.2894 28.2449 78.4754 28.2449C79.6457 28.2449 80.5649 29.145 80.5649 30.3773C80.5649 31.5957 79.6457 32.4835 78.4754 32.4835ZM100.908 23.3716H96.794V33.6484H98.51V29.755H100.907C102.809 29.755 104.681 28.5244 104.681 26.5637C104.681 24.6031 102.81 23.3716 100.908 23.3716ZM100.952 28.3246H98.51V24.802H100.952C102.235 24.802 102.964 25.7515 102.964 26.5637C102.964 27.3595 102.235 28.3246 100.952 28.3246ZM111.562 26.849C110.319 26.849 109.032 27.3381 108.499 28.4224L110.023 28.9905C110.349 28.4224 110.956 28.2366 111.592 28.2366C112.479 28.2366 113.382 28.7126 113.397 29.5585V29.6646C113.086 29.5059 112.42 29.2684 111.606 29.2684C109.964 29.2684 108.291 30.0748 108.291 31.5817C108.291 32.957 109.638 33.8424 111.147 33.8424C112.301 33.8424 112.938 33.3796 113.337 32.837H113.396V33.6303H115.054V29.6901C115.055 27.8667 113.529 26.849 111.562 26.849ZM111.354 32.481C110.793 32.481 110.008 32.2295 110.008 31.608C110.008 30.8147 110.985 30.5105 111.829 30.5105C112.582 30.5105 112.939 30.656 113.397 30.8541C113.263 31.8069 112.346 32.481 111.354 32.481ZM121.091 27.0734L119.123 31.5291H119.064L117.022 27.0734H115.172L118.235 33.3006L116.489 36.7649H118.28L123 27.0734H121.091ZM105.629 33.6484H107.344V23.3716H105.629V33.6484Z" fill="white"/>
<rect x="0.5" y="1" width="137" height="48.9997" rx="9.5" stroke="#E1E1FE"/>
<defs>
<filter id="filter0_ii_29_79296" x="15" y="13.5" width="22.0004" height="24" filterUnits="userSpaceOnUse" color-interpolation-filters="sRGB">
<feFlood flood-opacity="0" result="BackgroundImageFix"/>
<feBlend mode="normal" in="SourceGraphic" in2="BackgroundImageFix" result="shape"/>
<feColorMatrix in="SourceAlpha" type="matrix" values="0 0 0 0 0 0 0 0 0 0 0 0 0 0 0 0 0 0 127 0" result="hardAlpha"/>
<feOffset dy="-0.165"/>
<feComposite in2="hardAlpha" operator="arithmetic" k2="-1" k3="1"/>
<feColorMatrix type="matrix" values="0 0 0 0 0 0 0 0 0 0 0 0 0 0 0 0 0 0 0.12 0"/>
<feBlend mode="normal" in2="shape" result="effect1_innerShadow_29_79296"/>
<feColorMatrix in="SourceAlpha" type="matrix" values="0 0 0 0 0 0 0 0 0 0 0 0 0 0 0 0 0 0 127 0" result="hardAlpha"/>
<feOffset dy="0.165"/>
<feComposite in2="hardAlpha" operator="arithmetic" k2="-1" k3="1"/>
<feColorMatrix type="matrix" values="0 0 0 0 1 0 0 0 0 1 0 0 0 0 1 0 0 0 0.25 0"/>
<feBlend mode="normal" in2="effect1_innerShadow_29_79296" result="effect2_innerShadow_29_79296"/>
</filter>
<filter id="filter1_i_29_79296" x="15.4414" y="25.5" width="15.8984" height="12" filterUnits="userSpaceOnUse" color-interpolation-filters="sRGB">
<feFlood flood-opacity="0" result="BackgroundImageFix"/>
<feBlend mode="normal" in="SourceGraphic" in2="BackgroundImageFix" result="shape"/>
<feColorMatrix in="SourceAlpha" type="matrix" values="0 0 0 0 0 0 0 0 0 0 0 0 0 0 0 0 0 0 127 0" result="hardAlpha"/>
<feOffset dy="-0.165"/>
<feComposite in2="hardAlpha" operator="arithmetic" k2="-1" k3="1"/>
<feColorMatrix type="matrix" values="0 0 0 0 0 0 0 0 0 0 0 0 0 0 0 0 0 0 0.08 0"/>
<feBlend mode="normal" in2="shape" result="effect1_innerShadow_29_79296"/>
</filter>
</defs>
</svg>
