<svg width="24" height="24" viewBox="0 0 24 24" fill="none" xmlns="http://www.w3.org/2000/svg">
<path d="M12 14C13.66 14 15 12.66 15 11V5C15 3.34 13.66 2 12 2C10.34 2 9 3.34 9 5V11C9 12.66 10.34 14 12 14Z" fill="#574B9B" fill-opacity="0.54"/>
<path fill-rule="evenodd" clip-rule="evenodd" d="M16.848 11.9892C16.8557 11.951 16.8651 11.9134 16.8759 11.8762C16.8921 11.8213 16.9116 11.7676 16.9343 11.7156C17.1131 11.306 17.489 11 17.9424 11C18.4923 11 18.9454 11.448 18.8674 11.9924C18.8487 12.1232 18.8263 12.2533 18.8002 12.3825C18.793 12.4186 18.7854 12.4547 18.7776 12.4906C18.4942 13.7908 17.8434 14.9942 16.8878 15.9497C15.8125 17.0251 14.4233 17.7144 12.9356 17.9286C12.9372 17.9522 12.9381 17.976 12.9381 18V20C12.9381 20.5523 12.4904 21 11.9381 21C11.3858 21 10.9381 20.5523 10.9381 20V18C10.9381 17.976 10.9389 17.9522 10.9406 17.9286C9.45286 17.7144 8.06368 17.0251 6.98834 15.9497C6.03277 14.9942 5.38201 13.7908 5.09862 12.4906C5.09078 12.4547 5.08322 12.4186 5.07594 12.3825C5.04991 12.2533 5.0275 12.1232 5.00876 11.9924C4.93081 11.448 5.38388 11 5.93379 11C6.38721 11 6.76305 11.306 6.94188 11.7156C6.96459 11.7676 6.98412 11.8213 7.00024 11.8762C7.01112 11.9134 7.02044 11.951 7.02813 11.9892C7.22152 12.9491 7.69384 13.839 8.39648 14.5416C9.33577 15.4809 10.6097 16.0086 11.9381 16.0086C13.2664 16.0086 14.5404 15.4809 15.4797 14.5416C16.1823 13.839 16.6547 12.9491 16.848 11.9892Z" fill="#574B9B" fill-opacity="0.54"/>
</svg>
