<svg width="24" height="24" viewBox="0 0 24 24" fill="none" xmlns="http://www.w3.org/2000/svg">
<path d="M9 18.5C9 19.0523 9.44772 19.5 10 19.5H21C21.5523 19.5 22 19.0523 22 18.5V18.5C22 17.9477 21.5523 17.5 21 17.5H10C9.44772 17.5 9 17.9477 9 18.5V18.5ZM3 4.5C2.44772 4.5 2 4.94772 2 5.5V5.5C2 6.05228 2.44772 6.5 3 6.5H21C21.5523 6.5 22 6.05228 22 5.5V5.5C22 4.94772 21.5523 4.5 21 4.5H3ZM11 12.5C11 13.0523 11.4477 13.5 12 13.5H21C21.5523 13.5 22 13.0523 22 12.5V12.5C22 11.9477 21.5523 11.5 21 11.5H12C11.4477 11.5 11 11.9477 11 12.5V12.5Z" fill="#495F6A"/>
<rect x="7" y="11.5" width="2" height="2" rx="1" fill="#495F6A"/>
</svg>
