<svg width="16" height="19" viewBox="0 0 16 19" fill="none" xmlns="http://www.w3.org/2000/svg">
<path d="M13.8333 4.99967H12.1667C12.1667 2.69967 10.3 0.833008 8 0.833008C5.7 0.833008 3.83333 2.69967 3.83333 4.99967H2.16667C1.25 4.99967 0.5 5.74967 0.5 6.66634V16.6663C0.5 17.583 1.25 18.333 2.16667 18.333H13.8333C14.75 18.333 15.5 17.583 15.5 16.6663V6.66634C15.5 5.74967 14.75 4.99967 13.8333 4.99967ZM8 2.49967C9.38333 2.49967 10.5 3.61634 10.5 4.99967H5.5C5.5 3.61634 6.61667 2.49967 8 2.49967ZM13.8333 16.6663H2.16667V6.66634H13.8333V16.6663ZM8 9.99967C6.61667 9.99967 5.5 8.88301 5.5 7.49967H3.83333C3.83333 9.79967 5.7 11.6663 8 11.6663C10.3 11.6663 12.1667 9.79967 12.1667 7.49967H10.5C10.5 8.88301 9.38333 9.99967 8 9.99967Z" fill="#495F6A"/>
</svg>
