<svg width="24" height="24" viewBox="0 0 24 24" fill="none" xmlns="http://www.w3.org/2000/svg">
<path d="M13.7066 4.79256C12.9267 3.51642 11.0733 3.51643 10.2934 4.79256L8.35955 7.9571C7.54512 9.28981 8.50425 11 10.0661 11H13.9339C15.4957 11 16.4549 9.28981 15.6404 7.9571L13.7066 4.79256ZM11.0737 7.34874C11.4974 6.65862 12.5007 6.65977 12.9228 7.35087C13.364 8.07325 12.8441 9 11.9976 9C11.15 9 10.6303 8.07106 11.0737 7.34874ZM17.5 13C15.01 13 13 15.01 13 17.5C13 19.99 15.01 22 17.5 22C19.99 22 22 19.99 22 17.5C22 15.01 19.99 13 17.5 13ZM17.5 20C16.12 20 15 18.88 15 17.5C15 16.12 16.12 15 17.5 15C18.88 15 20 16.12 20 17.5C20 18.88 18.88 20 17.5 20ZM3 19.5C3 20.6046 3.89543 21.5 5 21.5H9C10.1046 21.5 11 20.6046 11 19.5V15.5C11 14.3954 10.1046 13.5 9 13.5H5C3.89543 13.5 3 14.3954 3 15.5V19.5ZM5 17.5C5 16.3954 5.89543 15.5 7 15.5C8.10457 15.5 9 16.3954 9 17.5C9 18.6046 8.10457 19.5 7 19.5C5.89543 19.5 5 18.6046 5 17.5Z" fill="#67517A"/>
</svg>
