<svg width="19" height="19" viewBox="0 0 19 19" fill="none" xmlns="http://www.w3.org/2000/svg">
<path d="M10.7066 1.79256C9.9267 0.516425 8.0733 0.516426 7.29344 1.79256L5.35955 4.9571C4.54512 6.28981 5.50425 8 7.06611 8H10.9339C12.4957 8 13.4549 6.28981 12.6404 4.9571L10.7066 1.79256ZM8.07375 4.34874C8.49743 3.65862 9.50068 3.65977 9.92278 4.35087C10.364 5.07325 9.84407 6 8.99761 6C8.15003 6 7.6303 5.07106 8.07375 4.34874ZM14.5 10C12.01 10 10 12.01 10 14.5C10 16.99 12.01 19 14.5 19C16.99 19 19 16.99 19 14.5C19 12.01 16.99 10 14.5 10ZM14.5 17C13.12 17 12 15.88 12 14.5C12 13.12 13.12 12 14.5 12C15.88 12 17 13.12 17 14.5C17 15.88 15.88 17 14.5 17ZM0 16.5C0 17.6046 0.895431 18.5 2 18.5H6C7.10457 18.5 8 17.6046 8 16.5V12.5C8 11.3954 7.10457 10.5 6 10.5H2C0.895431 10.5 0 11.3954 0 12.5V16.5ZM2 14.5C2 13.3954 2.89543 12.5 4 12.5C5.10457 12.5 6 13.3954 6 14.5C6 15.6046 5.10457 16.5 4 16.5C2.89543 16.5 2 15.6046 2 14.5Z" fill="#67517A"/>
</svg>
