<svg width="18" height="18" viewBox="0 0 18 18" fill="none" xmlns="http://www.w3.org/2000/svg">
<path fill-rule="evenodd" clip-rule="evenodd" d="M13.5445 8.02223C13.5445 11.0721 11.0721 13.5445 8.02223 13.5445C4.97238 13.5445 2.5 11.0721 2.5 8.02223C2.5 4.97238 4.97238 2.5 8.02223 2.5C11.0721 2.5 13.5445 4.97238 13.5445 8.02223ZM12.5848 14.0033C11.3192 14.9701 9.73781 15.5445 8.02223 15.5445C3.86782 15.5445 0.5 12.1766 0.5 8.02223C0.5 3.86782 3.86782 0.5 8.02223 0.5C12.1766 0.5 15.5445 3.86782 15.5445 8.02223C15.5445 9.73785 14.9701 11.3193 14.0032 12.5849L17.2083 15.79C17.5988 16.1805 17.5967 16.8158 17.2062 17.2063C16.8157 17.5968 16.1804 17.5989 15.7899 17.2084L12.5848 14.0033Z" fill="#574B9B" fill-opacity="0.54"/>
</svg>
