<svg width="20" height="20" viewBox="0 0 20 20" fill="none" xmlns="http://www.w3.org/2000/svg">
<path d="M1 5.18605L10.2195 1L12.9959 2.32361M1 5.18605V14.3953L10.2195 19M1 5.18605L4.23669 6.8026M19 5.18605V14.3953L10.2195 19M19 5.18605L10.2195 9.7907M19 5.18605L15.7722 3.64721M10.2195 19V9.7907M10.2195 9.7907L7.14634 8.25581L7.0121 8.18877M7.0121 8.18877L15.7722 3.64721M7.0121 8.18877L4.23669 6.8026M7.0121 8.18877V11.7427L5.82927 10.6279H4.23669V6.8026M15.7722 3.64721L12.9959 2.32361M12.9959 2.32361L4.23669 6.8026" stroke="#495F6A" stroke-width="2" stroke-linejoin="round"/>
</svg>
