<svg width="15" height="14" viewBox="0 0 15 14" fill="none" xmlns="http://www.w3.org/2000/svg">
<path d="M14.3333 6.99984C14.3333 6.49358 13.9229 6.08317 13.4167 6.08317H5.59171C4.70081 6.08317 4.25464 5.00603 4.8846 4.37606L7.65083 1.60984C8.0099 1.25077 8.00887 0.668274 7.64853 0.31047C7.28999 -0.0455502 6.71103 -0.0445271 6.35374 0.312758L0.37377 6.29273C-0.016754 6.68326 -0.0167534 7.31642 0.373771 7.70694L6.35346 13.6866C6.71053 14.0437 7.28946 14.0437 7.64654 13.6866C8.00338 13.3298 8.00364 12.7513 7.64712 12.3941L4.88092 9.62298C4.25182 8.99275 4.69818 7.9165 5.58866 7.9165H13.4167C13.9229 7.9165 14.3333 7.5061 14.3333 6.99984Z" fill="#495F6A"/>
</svg>
