<svg width="12" height="12" viewBox="0 0 12 12" fill="none" xmlns="http://www.w3.org/2000/svg">
<path d="M11.6574 5.36535C12.3182 4.79184 11.9651 3.70588 11.0934 3.63071L8.6777 3.42241C8.31241 3.39091 7.99442 3.16017 7.85116 2.82267L6.90914 0.603396C6.56754 -0.201368 5.42684 -0.20106 5.08567 0.60389L4.1427 2.82878C3.99935 3.16698 3.68059 3.39807 3.31458 3.42912L0.908013 3.6333C0.0350879 3.70735 -0.318875 4.79502 0.343275 5.36864L2.17286 6.95361C2.45072 7.19432 2.57238 7.56913 2.48886 7.92714L1.93975 10.281C1.74072 11.1341 2.66594 11.8065 3.41596 11.3538L5.48507 10.105C5.7998 9.91506 6.19385 9.91506 6.50857 10.105L8.58147 11.3561C9.33093 11.8085 10.2557 11.1373 10.058 10.2845L9.51108 7.92584C9.42823 7.5685 9.54967 7.19463 9.82671 6.9542L11.6574 5.36535Z" fill="#FFB400"/>
</svg>
