<svg width="40" height="40" viewBox="0 0 40 40" fill="none" xmlns="http://www.w3.org/2000/svg">
<g clip-path="url(#clip0_1656_5571)">
<path d="M15.043 0V23.4177L20.7327 19.712H39.9997V0L15.043 0ZM26.5741 13.1873L26.5683 15.531L19.9636 15.5145L19.9707 13.5996C19.9707 13.5996 22.6971 10.6227 23.9058 9.14078C24.1963 8.78453 24.3563 8.33422 24.3563 7.87281C24.3563 7.20906 23.8393 6.65484 23.2038 6.63742C22.8785 6.62805 22.5738 6.74766 22.3421 6.97297C22.1105 7.19844 21.9828 7.50055 21.9828 7.82375H19.6391C19.6391 6.86234 20.0185 5.96367 20.7077 5.29313C21.3967 4.62297 22.3059 4.2682 23.268 4.29461C25.1605 4.34641 26.7001 5.95156 26.7001 7.87281C26.7001 8.8725 26.3528 9.84883 25.722 10.6221C25.1183 11.3624 24.2553 12.3467 23.5124 13.1796L26.5741 13.1873ZM35.2852 15.4991L32.9414 15.4939L32.9475 12.7584H27.7938L31.979 4.54117H35.3095L35.2852 15.4991Z" fill="#FF5722"/>
<path d="M32.9522 10.4139L32.958 7.78125L31.6172 10.4139H32.9522Z" fill="#FF5722"/>
<path d="M16.6426 27.7695H27.2392V31.199H16.6426V27.7695Z" fill="#FF5722"/>
<path d="M8.80859 12.0234H12.227V23.3448H8.80859V12.0234Z" fill="#FF5722"/>
<path d="M6.3225 24.377V12.0234H5.43477C2.43805 12.0234 0 14.4615 0 17.4582V25.0509C0 33.2928 6.70531 39.9981 14.9473 39.9981H21.8047C24.8014 39.9981 27.2395 37.5601 27.2395 34.5634V33.683H15.6285C10.489 33.683 6.3225 29.5165 6.3225 24.377Z" fill="#FF5722"/>
</g>
<defs>
<clipPath id="clip0_1656_5571">
<rect width="40" height="40" fill="white"/>
</clipPath>
</defs>
</svg>
