<svg width="20" height="20" viewBox="0 0 20 20" fill="none" xmlns="http://www.w3.org/2000/svg">
<path d="M9.08203 6.33398C9.08203 5.82772 9.49244 5.41732 9.9987 5.41732C10.505 5.41732 10.9154 5.82772 10.9154 6.33398C10.9154 6.84025 10.505 7.25065 9.9987 7.25065C9.49244 7.25065 9.08203 6.84025 9.08203 6.33398ZM9.08203 10.0007C9.08203 9.49439 9.49244 9.08398 9.9987 9.08398C10.505 9.08398 10.9154 9.49439 10.9154 10.0007V13.6673C10.9154 14.1736 10.505 14.584 9.9987 14.584C9.49244 14.584 9.08203 14.1736 9.08203 13.6673V10.0007ZM9.9987 0.833984C4.9387 0.833984 0.832031 4.94065 0.832031 10.0007C0.832031 15.0607 4.9387 19.1673 9.9987 19.1673C15.0587 19.1673 19.1654 15.0607 19.1654 10.0007C19.1654 4.94065 15.0587 0.833984 9.9987 0.833984ZM9.9987 17.334C5.9562 17.334 2.66536 14.0431 2.66536 10.0007C2.66536 5.95815 5.9562 2.66732 9.9987 2.66732C14.0412 2.66732 17.332 5.95815 17.332 10.0007C17.332 14.0431 14.0412 17.334 9.9987 17.334Z" fill="#FFB900"/>
</svg>
